<?xml version="1.0" encoding="utf-8"?>
<!-- Generator: Adobe Illustrator 27.6.1, SVG Export Plug-In . SVG Version: 6.00 Build 0)  -->
<svg version="1.1" id="Layer_1" xmlns="http://www.w3.org/2000/svg" xmlns:xlink="http://www.w3.org/1999/xlink" x="0px" y="0px"
	 viewBox="0 0 861.8 275.6" style="enable-background:new 0 0 861.8 275.6;" xml:space="preserve">
<style type="text/css">
	.st0{fill:#0F131B;}
	.st1{fill:#010101;fill-opacity:0;stroke:#0F131B;stroke-linecap:round;stroke-linejoin:round;}
	.st2{fill:#FDB814;}
	.st3{fill:#010101;fill-opacity:0;stroke:#FDB814;stroke-linecap:round;stroke-linejoin:round;}
	.st4{fill:#FDEBAB;}
	.st5{fill:#010101;fill-opacity:0;stroke:#FDEBAB;stroke-linecap:round;stroke-linejoin:round;}
	.st6{fill:#FEC017;}
	.st7{fill:#010101;fill-opacity:0;stroke:#FEC017;stroke-linecap:round;stroke-linejoin:round;}
	.st8{fill:#FEE99E;}
	.st9{fill:#010101;fill-opacity:0;stroke:#FEE99E;stroke-linecap:round;stroke-linejoin:round;}
	.st10{fill:#FEDE37;}
	.st11{fill:#010101;fill-opacity:0;stroke:#FEDE37;stroke-linecap:round;stroke-linejoin:round;}
	.st12{fill:#FFE26D;}
	.st13{fill:#010101;fill-opacity:0;stroke:#FFE26D;stroke-linecap:round;stroke-linejoin:round;}
	.st14{fill:#FCF05B;}
	.st15{fill:#010101;fill-opacity:0;stroke:#FCF05B;stroke-linecap:round;stroke-linejoin:round;}
	.st16{fill:#FFF08A;}
	.st17{fill:#010101;fill-opacity:0;stroke:#FFF08A;stroke-linecap:round;stroke-linejoin:round;}
	.st18{fill:#FFD75C;}
	.st19{fill:#010101;fill-opacity:0;stroke:#FFD75C;stroke-linecap:round;stroke-linejoin:round;}
	.st20{fill:#FFDB71;}
	.st21{fill:#010101;fill-opacity:0;stroke:#FFDB71;stroke-linecap:round;stroke-linejoin:round;}
	.st22{fill:#FFCF1D;}
	.st23{fill:#010101;fill-opacity:0;stroke:#FFCF1D;stroke-linecap:round;stroke-linejoin:round;}
	.st24{fill:#FEDE20;}
	.st25{fill:#010101;fill-opacity:0;stroke:#FEDE20;stroke-linecap:round;stroke-linejoin:round;}
	.st26{fill:#FEDF8E;}
	.st27{fill:#010101;fill-opacity:0;stroke:#FEDF8E;stroke-linecap:round;stroke-linejoin:round;}
	.st28{fill:#FEE045;}
	.st29{fill:#010101;fill-opacity:0;stroke:#FEE045;stroke-linecap:round;stroke-linejoin:round;}
	.st30{fill:#FFD186;}
	.st31{fill:#010101;fill-opacity:0;stroke:#FFD186;stroke-linecap:round;stroke-linejoin:round;}
	.st32{font-family:'Arboria-Bold';}
	.st33{font-size:135.2613px;}
</style>
<g>
	<g transform="matrix(1,0,0,1,0,0)">
		<g transform="matrix(1,0,0,1,0,0)">
			<path class="st0" d="M171.4,265.9c-0.1-0.1-0.6-0.4-1-0.6s-1.5-0.9-2.5-1.5c-0.9-0.6-1.9-1.2-2.1-1.4c-0.2-0.1-0.7-0.5-1.1-0.8
				c-0.3-0.3-0.7-0.6-0.8-0.6c-0.2,0-1.7-1.3-4-3.3c-0.7-0.7-1.4-1.2-1.5-1.2c-0.3,0-10-9.8-11.6-11.9c-0.8-1-2.1-2.5-2.8-3.3
				c-0.7-0.8-1.7-2-2.1-2.6c-1.5-1.9-2.5-3.2-3.2-4c-0.4-0.5-0.7-0.9-0.7-1s-0.2-0.4-0.4-0.5c-0.5-0.4-5.9-8.4-6.9-10.3
				c-0.4-0.7-1-1.7-1.3-2.2c-0.3-0.5-0.5-0.9-0.5-1c0-0.1-0.7-1.3-1.5-2.7c-1.9-3.2-3.3-6-4.8-9.8c-1.8-4.4-2.2-5.8-2.2-6.5
				c0-0.3-0.2-0.9-0.4-1.4s-0.5-1.3-0.6-1.9c-0.1-0.6-0.3-1.6-0.4-2.3c-0.1-0.6-0.3-1.6-0.4-2.3c-0.1-0.6-0.2-1.2-0.3-1.3
				c-0.3-0.3-0.3-14.5,0-14.7c0.1-0.1,0.2-0.5,0.2-0.9c0-0.4,0.1-1.2,0.2-1.7c0.1-0.5,0.3-1.6,0.5-2.3c0.6-3.1,1.9-7.9,2.6-9.8
				c0.4-1.1,0.8-2.2,0.8-2.4s0.4-1.2,0.9-2.3c0.5-1.1,0.9-2,0.9-2.1c0-0.4,3.3-6.8,4.7-9.1c3.7-6.2,6.9-10.4,11.2-14.8l2.7-2.7
				l-1.7-3.5c-1-1.9-1.9-3.5-2-3.6s-1.9,1.2-4,2.7c-6.9,5.1-14,9.9-20.2,13.7c-3.2,1.9-13,7-14.8,7.6c-0.5,0.2-1.6,0.6-2.5,1
				c-6.3,2.6-11.7,4.1-18.3,4.9c-2.4,0.3-3.3,0.3-5.5,0c-8.3-1.1-10.9-1.9-18.2-5.6c-4.3-2.1-4.6-2.3-5.2-2.8
				c-0.2-0.2-0.5-0.4-0.6-0.4s-0.6-0.3-1.2-0.7c-0.6-0.4-1.1-0.7-1.2-0.7c-0.6-0.5-3-2-3.3-2.3c-0.2-0.3-1.4-1.2-2.5-2
				c-6-4.5-14.1-12.3-18.2-17.3c-0.7-0.9-1.6-2-2-2.4c-1-1-4.4-6.6-5.8-9.3c-1.1-2.3-2.3-5.2-2.8-6.7c-0.1-0.4-0.4-1.5-0.7-2.3
				s-0.5-1.9-0.5-2.4c0-0.5-0.1-1-0.2-1.1c-0.3-0.2-0.3-2.3,0-2.5c0.1-0.1,0.2-0.7,0.2-1.3c0-2.1,1.8-6.2,3.4-7.7
				c0.5-0.5,1-1.1,1.1-1.4c0.3-0.7,3.7-2.9,6.2-4.1c3.5-1.6,4.2-1.9,4.6-1.9c0.2,0,0.8-0.2,1.4-0.4c0.6-0.2,1.4-0.5,1.9-0.6
				c0.5-0.1,1.3-0.3,1.8-0.4c2.2-0.6,3-0.7,4.5-0.8c0.9-0.1,1.7-0.2,1.8-0.3c0.1-0.1,1.2-0.2,2.3-0.2c1.3,0,2.1-0.1,2.1-0.2
				c0-0.1,2.6-0.2,7.2-0.2s7.2,0.1,7.2,0.2c0,0.1,1.2,0.2,3,0.2c1.8,0,3.1,0.1,3.2,0.2c0.1,0.1,0.9,0.2,1.8,0.2
				c0.9,0,1.7,0.1,1.8,0.2c0.1,0.1,0.8,0.2,1.6,0.2s1.5,0.1,1.6,0.2c0.1,0.1,0.7,0.2,1.4,0.2s1.3,0.1,1.4,0.2
				c0.1,0.1,0.8,0.2,1.6,0.2s1.5,0.1,1.6,0.2s0.9,0.2,1.8,0.2c0.9,0,1.7,0.1,1.8,0.2c0.1,0.1,0.6,0.2,1.1,0.2s1.1,0.1,1.1,0.2
				s0.7,0.2,1.3,0.2s1.3,0.1,1.4,0.2c0.1,0.1,0.6,0.3,1.1,0.3s1.5,0.2,2.1,0.4c0.7,0.1,1.6,0.3,2.1,0.4c0.5,0.1,0.9,0.2,1,0.3
				c0.1,0.1,0.5,0.2,1.1,0.2c0.8,0,1.8,0.2,3,0.7c0.5,0.2,1,0.3,2.8,0.7c0.6,0.1,1.3,0.3,1.7,0.3c0.9,0.2,3.7,1,4.4,1.3
				c0.3,0.1,0.8,0.2,1.1,0.2c0.3,0,1.1,0.2,1.7,0.4s2.9,0.8,5,1.3c2.1,0.5,4.6,1.2,5.4,1.5c4.1,1.2,4.9,1.4,6.9,1.9
				c1.2,0.3,2.5,0.7,2.8,0.8c0.6,0.2,3.5,1.1,7,2.3c0.7,0.2,1.8,0.5,2.3,0.5c0.8,0,1-0.1,1-0.5c0-0.4,0.2-1.4,0.7-3.4
				c0.1-0.4,0.4-1.5,0.5-2.3c0.4-1.6,1.3-4.4,2.1-6.5c1.7-4.4,4.4-8.5,7.6-11.7c0.9-0.9,1.7-1.8,1.7-2.1c0-0.5-0.3-1.3-1.3-3.4
				c-0.3-0.7-0.5-1.2-0.5-1.3c0-0.3-2.1-4.4-2.6-5.2c-0.3-0.5-0.6-0.9-0.6-1c0-0.1-0.5-0.9-1.1-1.8c-0.6-0.9-1.1-1.8-2-3.1
				c0-0.2-0.5-0.9-1.6-2.3c-0.3-0.4-0.6-0.8-0.6-0.9c0-0.3-1.6-2.1-5.9-6.5c-3.9-4-5.1-5.1-6.6-6c-0.2-0.1-0.7-0.5-1.1-0.8
				c-0.3-0.3-0.7-0.6-0.8-0.6s-0.7-0.5-1.2-1c-0.6-0.6-1.4-1.2-1.9-1.5c-0.5-0.2-1.1-0.6-1.2-0.8c-0.2-0.2-0.4-0.4-0.6-0.4
				c-0.5,0-1.9-1.7-1.9-2.2c0-0.3-0.1-0.5-0.2-0.6c-0.4-0.2-0.3-1.7,0.3-2.7c0.6-1.3,2-2.6,2.6-2.6c0.3,0,0.6-0.1,0.6-0.2
				c0.4-0.7,3.3,0.3,4.4,1.4c0.3,0.3,0.6,0.6,0.8,0.6c0.1,0,0.8,0.5,1.4,1.1c0.7,0.6,1.7,1.5,2.3,2c3.4,2.6,14,12.8,14,13.4
				c0,0.1,0.2,0.4,0.4,0.6c0.2,0.2,0.6,0.7,0.9,1.1c0.3,0.4,0.9,1.3,1.3,1.8c3.1,4,7.3,11.4,9.5,16.5c0.6,1.4,1.8,2,2.7,1.2
				c0.4-0.3,1.7-0.7,3.9-1.3c0.5-0.1,1.1-0.3,1.3-0.4c0.2-0.1,0.8-0.2,1.4-0.2c0.6,0,1.1-0.1,1.1-0.2c0.2-0.3,10.5-0.3,10.5,0
				c0,0.1,0.5,0.2,1.1,0.2c0.7,0,1.5,0.2,2.4,0.7c0.7,0.4,1.5,0.7,1.6,0.7c0.1,0,0.6,0.2,1,0.4s1.2,0.4,1.8,0.5l1.1,0.1l0.6-1.3
				c4.3-9.8,10.8-19.1,19.6-27.9c3.4-3.4,5.2-5,10.4-9.3c1.6-1.3,4.5-2.6,4.7-2c0,0.1,0.3,0.3,0.6,0.3c0.3,0,0.7,0.2,2.1,1.3
				c0.1,0.2,0.3,0.6,0.6,0.9c0.3,0.4,0.4,0.9,0.4,2.1c0,2.3-0.8,3.4-3.2,4.6c-0.8,0.4-1.8,1.1-2.2,1.6c-0.4,0.4-0.9,0.8-1,0.8
				s-0.6,0.4-1.1,0.9c-0.5,0.5-1,0.9-1.1,0.9c-0.5,0-8.1,7.1-8.1,7.6c0,0.1-0.3,0.5-0.7,0.9s-0.7,0.8-0.7,0.9c0,0.1-0.5,0.7-1.1,1.4
				c-0.6,0.6-1.1,1.2-1.1,1.4s-0.4,0.6-0.8,1c-0.4,0.4-1,1.2-1.2,1.7c-0.2,0.5-0.7,1.2-1,1.5c-0.3,0.3-0.6,0.7-0.6,0.8
				c0,0.1-0.2,0.4-0.3,0.6c-0.2,0.2-0.5,0.7-0.8,1.3c-0.2,0.5-0.5,1-0.7,1.1c-0.1,0.1-0.4,0.5-0.6,1c-0.2,0.5-0.5,1-0.7,1.2
				c-0.4,0.5-3.7,7-3.7,7.3c0,0.1-0.2,0.7-0.5,1.2c-0.4,0.8-0.5,1-0.2,1.6c0.2,0.4,0.4,0.7,0.6,0.7c0.2,0,0.4,0.2,0.5,0.5
				c0.1,0.3,0.8,1.1,1.5,1.7c0.7,0.7,1.3,1.3,1.3,1.4s0.3,0.5,0.6,1c1.6,1.9,1.9,2.3,2.7,3.9c0.5,0.9,1,1.9,1.2,2.1
				c0.6,1,1.4,3.1,2.3,6c0.5,1.7,1.1,3.4,1.2,3.7c0.1,0.4,0.2,1.2,0.2,1.9c0,1.5,0.5,3,0.9,3c0.2,0,1.5-0.4,2.9-0.9
				c3.6-1.3,6.2-2.1,8-2.7c0.9-0.2,3.3-1,5.3-1.6s4.4-1.4,5.3-1.6c0.9-0.2,2.2-0.6,3-0.9s1.6-0.4,1.8-0.4s0.8-0.2,1.3-0.5
				c0.5-0.2,1.3-0.5,1.8-0.5c0.5,0,0.9-0.1,1-0.2c0.1-0.1,0.5-0.3,0.9-0.3c0.7-0.1,1.1-0.2,3.5-0.8c0.5-0.1,1.3-0.3,1.8-0.5
				s1.4-0.3,1.9-0.5c0.5-0.1,1.4-0.3,2-0.4c1-0.2,1.9-0.4,4-0.9c0.5-0.1,1.4-0.3,1.9-0.4c0.6-0.1,1.5-0.3,2-0.5
				c0.6-0.1,1.5-0.3,2-0.4c0.6-0.1,1.1-0.2,1.2-0.3c0.1-0.1,0.6-0.2,1.1-0.2c0.8,0,1.8-0.2,3-0.7c0.2-0.1,1-0.2,1.7-0.3
				c3-0.3,3.8-0.4,4.2-0.6c0.2-0.1,1.2-0.3,2-0.3s2.3-0.2,3.2-0.4c0.9-0.1,2.4-0.3,3.5-0.3c1.1-0.1,2-0.2,2.1-0.3
				c0.1-0.1,1.4-0.2,2.8-0.2c1.6,0,2.6-0.1,2.6-0.2c0-0.3,17.3-0.3,17.5,0c0.1,0.1,0.8,0.2,1.6,0.2s1.5,0.1,1.6,0.2s0.8,0.2,1.6,0.2
				s1.7,0.1,2,0.2c0.3,0.1,1.1,0.3,1.8,0.5c4.8,1,10.3,3.1,12.5,4.5c0.5,0.4,1,0.7,1.1,0.7c0.4,0,2.3,1.6,3.8,3.1
				c2.9,3,3.6,4.5,4.4,9.4c0.2,1.2-0.3,3.9-1.3,7.5c-0.5,1.6-3,7-3.9,8.3c-0.3,0.4-0.7,1.1-0.9,1.6c-0.2,0.4-0.5,0.9-0.7,1.1
				c-0.3,0.5-2,3-2.2,3.3c0,0.1-0.3,0.6-0.7,0.9c-0.4,0.4-0.7,0.8-0.7,0.9c0,0.1-0.3,0.5-0.7,0.9c-0.4,0.4-0.7,0.8-0.7,0.9
				c0,0.1-0.4,0.6-0.9,1.1c-0.5,0.5-0.9,1-0.9,1.1c0,0.3-10.7,11-11,11c-0.1,0-0.7,0.5-1.3,1.1c-0.6,0.6-1.2,1.1-1.4,1.1
				s-0.5,0.3-0.9,0.7c-0.4,0.4-0.8,0.7-0.9,0.7s-0.5,0.3-0.9,0.7c-1.2,1.1-9.1,6.5-11.4,7.8c-11.9,6.4-19.7,8.3-29.2,7.1
				c-4.5-0.6-6.1-0.8-6.8-1.1c-0.3-0.1-1.8-0.6-3.2-1c-2.4-0.7-6.7-2.2-8.3-2.9c-0.4-0.2-1.5-0.6-2.5-1c-2-0.8-7.7-3.5-8.3-4
				c-0.2-0.1-1.2-0.7-2.1-1.2c-1-0.5-2.3-1.3-3-1.7s-1.8-1.1-2.5-1.5c-0.7-0.4-1.9-1.2-2.6-1.6s-1.3-0.9-1.4-0.9
				c-0.3,0-7.7-5.2-12.6-8.9c-2-1.5-3.7-2.8-4-2.9c-0.4-0.2-0.6,0.2-2.1,3.2c-1,1.9-1.7,3.5-1.7,3.7s0.2,0.4,0.5,0.7
				c0.3,0.2,1.9,2,3.6,3.9c3.8,4.2,6.1,7.2,9.6,12.5c0.5,0.7,1.5,2,2.3,2.8c0.8,0.9,1.6,1.9,1.8,2.3c0.2,0.4,0.5,0.8,0.7,0.8
				c0.3,0.1,0.4,0.4,0.4,1.9c0,1.9,0.2,2.6,2.3,8.2c1.2,3.2,1.6,4.6,2.6,9.2c0.3,1.2,0.6,2.7,0.7,3.2c0.3,1.4,0.5,6.1,0.5,11.8
				c0,6.1-0.3,8.9-1.3,11.6c-0.2,0.6-0.4,1.3-0.4,1.6c0,0.3-0.2,1.1-0.4,1.6c-0.8,1.8-0.9,2.2-0.9,2.7c0,0.2-0.3,1.1-0.7,1.9
				c-0.4,0.8-0.7,1.5-0.7,1.6s-0.4,1-0.9,2c-0.5,1.1-0.9,2-0.9,2.1c0,0.2-1.4,3.2-2,4.1c-0.3,0.5-1,1.7-1.4,2.6
				c-0.5,0.9-1,1.8-1.2,2c-0.2,0.2-0.5,0.7-0.7,1.2c-0.2,0.4-0.5,0.9-1.4,2.2c-0.2,0.2-0.5,0.7-0.8,1.2c-0.2,0.5-0.6,1.1-0.8,1.2
				c-1.1,1.8-3.9,5.8-4.9,7.3c0,0.1-0.3,0.6-0.7,0.9c-0.4,0.4-0.7,0.8-0.7,0.9s-0.4,0.6-0.9,1.1c-0.5,0.5-0.9,1-0.9,1.1
				s-0.3,0.5-0.7,0.9c-0.4,0.4-0.7,0.8-0.7,0.9c0,0.1-0.6,0.9-1.4,1.6c-0.7,0.7-1.4,1.4-1.4,1.6c0,0.1-0.7,0.9-1.6,1.8
				s-1.6,1.7-1.6,1.8s-0.5,0.7-1.1,1.4c-0.6,0.6-1.1,1.2-1.1,1.4c0,0.3-8,8.3-8.3,8.3c-0.1,0-0.7,0.5-1.3,1.1
				c-0.6,0.6-1.2,1.1-1.4,1.1c-0.1,0-0.8,0.6-1.6,1.4s-1.5,1.4-1.6,1.4c-0.1,0-0.5,0.3-0.9,0.7c-0.4,0.4-0.8,0.7-0.9,0.7
				c-0.1,0-0.5,0.2-0.8,0.5c-0.6,0.6-2,1.4-4.2,2.5C172,266.1,171.7,266.2,171.4,265.9L171.4,265.9z"/>
			<path class="st1" d="M171.4,265.9c-0.1-0.1-0.6-0.4-1-0.6s-1.5-0.9-2.5-1.5c-0.9-0.6-1.9-1.2-2.1-1.4c-0.2-0.1-0.7-0.5-1.1-0.8
				c-0.3-0.3-0.7-0.6-0.8-0.6c-0.2,0-1.7-1.3-4-3.3c-0.7-0.7-1.4-1.2-1.5-1.2c-0.3,0-10-9.8-11.6-11.9c-0.8-1-2.1-2.5-2.8-3.3
				c-0.7-0.8-1.7-2-2.1-2.6c-1.5-1.9-2.5-3.2-3.2-4c-0.4-0.5-0.7-0.9-0.7-1s-0.2-0.4-0.4-0.5c-0.5-0.4-5.9-8.4-6.9-10.3
				c-0.4-0.7-1-1.7-1.3-2.2c-0.3-0.5-0.5-0.9-0.5-1c0-0.1-0.7-1.3-1.5-2.7c-1.9-3.2-3.3-6-4.8-9.8c-1.8-4.4-2.2-5.8-2.2-6.5
				c0-0.3-0.2-0.9-0.4-1.4s-0.5-1.3-0.6-1.9c-0.1-0.6-0.3-1.6-0.4-2.3c-0.1-0.6-0.3-1.6-0.4-2.3c-0.1-0.6-0.2-1.2-0.3-1.3
				c-0.3-0.3-0.3-14.5,0-14.7c0.1-0.1,0.2-0.5,0.2-0.9c0-0.4,0.1-1.2,0.2-1.7c0.1-0.5,0.3-1.6,0.5-2.3c0.6-3.1,1.9-7.9,2.6-9.8
				c0.4-1.1,0.8-2.2,0.8-2.4s0.4-1.2,0.9-2.3c0.5-1.1,0.9-2,0.9-2.1c0-0.4,3.3-6.8,4.7-9.1c3.7-6.2,6.9-10.4,11.2-14.8l2.7-2.7
				l-1.7-3.5c-1-1.9-1.9-3.5-2-3.6s-1.9,1.2-4,2.7c-6.9,5.1-14,9.9-20.2,13.7c-3.2,1.9-13,7-14.8,7.6c-0.5,0.2-1.6,0.6-2.5,1
				c-6.3,2.6-11.7,4.1-18.3,4.9c-2.4,0.3-3.3,0.3-5.5,0c-8.3-1.1-10.9-1.9-18.2-5.6c-4.3-2.1-4.6-2.3-5.2-2.8
				c-0.2-0.2-0.5-0.4-0.6-0.4s-0.6-0.3-1.2-0.7c-0.6-0.4-1.1-0.7-1.2-0.7c-0.6-0.5-3-2-3.3-2.3c-0.2-0.3-1.4-1.2-2.5-2
				c-6-4.5-14.1-12.3-18.2-17.3c-0.7-0.9-1.6-2-2-2.4c-1-1-4.4-6.6-5.8-9.3c-1.1-2.3-2.3-5.2-2.8-6.7c-0.1-0.4-0.4-1.5-0.7-2.3
				s-0.5-1.9-0.5-2.4c0-0.5-0.1-1-0.2-1.1c-0.3-0.2-0.3-2.3,0-2.5c0.1-0.1,0.2-0.7,0.2-1.3c0-2.1,1.8-6.2,3.4-7.7
				c0.5-0.5,1-1.1,1.1-1.4c0.3-0.7,3.7-2.9,6.2-4.1c3.5-1.6,4.2-1.9,4.6-1.9c0.2,0,0.8-0.2,1.4-0.4c0.6-0.2,1.4-0.5,1.9-0.6
				c0.5-0.1,1.3-0.3,1.8-0.4c2.2-0.6,3-0.7,4.5-0.8c0.9-0.1,1.7-0.2,1.8-0.3c0.1-0.1,1.2-0.2,2.3-0.2c1.3,0,2.1-0.1,2.1-0.2
				c0-0.1,2.6-0.2,7.2-0.2s7.2,0.1,7.2,0.2c0,0.1,1.2,0.2,3,0.2c1.8,0,3.1,0.1,3.2,0.2c0.1,0.1,0.9,0.2,1.8,0.2
				c0.9,0,1.7,0.1,1.8,0.2c0.1,0.1,0.8,0.2,1.6,0.2s1.5,0.1,1.6,0.2c0.1,0.1,0.7,0.2,1.4,0.2s1.3,0.1,1.4,0.2
				c0.1,0.1,0.8,0.2,1.6,0.2s1.5,0.1,1.6,0.2s0.9,0.2,1.8,0.2c0.9,0,1.7,0.1,1.8,0.2c0.1,0.1,0.6,0.2,1.1,0.2s1.1,0.1,1.1,0.2
				s0.7,0.2,1.3,0.2s1.3,0.1,1.4,0.2c0.1,0.1,0.6,0.3,1.1,0.3s1.5,0.2,2.1,0.4c0.7,0.1,1.6,0.3,2.1,0.4c0.5,0.1,0.9,0.2,1,0.3
				c0.1,0.1,0.5,0.2,1.1,0.2c0.8,0,1.8,0.2,3,0.7c0.5,0.2,1,0.3,2.8,0.7c0.6,0.1,1.3,0.3,1.7,0.3c0.9,0.2,3.7,1,4.4,1.3
				c0.3,0.1,0.8,0.2,1.1,0.2c0.3,0,1.1,0.2,1.7,0.4s2.9,0.8,5,1.3c2.1,0.5,4.6,1.2,5.4,1.5c4.1,1.2,4.9,1.4,6.9,1.9
				c1.2,0.3,2.5,0.7,2.8,0.8c0.6,0.2,3.5,1.1,7,2.3c0.7,0.2,1.8,0.5,2.3,0.5c0.8,0,1-0.1,1-0.5c0-0.4,0.2-1.4,0.7-3.4
				c0.1-0.4,0.4-1.5,0.5-2.3c0.4-1.6,1.3-4.4,2.1-6.5c1.7-4.4,4.4-8.5,7.6-11.7c0.9-0.9,1.7-1.8,1.7-2.1c0-0.5-0.3-1.3-1.3-3.4
				c-0.3-0.7-0.5-1.2-0.5-1.3c0-0.3-2.1-4.4-2.6-5.2c-0.3-0.5-0.6-0.9-0.6-1c0-0.1-0.5-0.9-1.1-1.8c-0.6-0.9-1.1-1.8-2-3.1
				c0-0.2-0.5-0.9-1.6-2.3c-0.3-0.4-0.6-0.8-0.6-0.9c0-0.3-1.6-2.1-5.9-6.5c-3.9-4-5.1-5.1-6.6-6c-0.2-0.1-0.7-0.5-1.1-0.8
				c-0.3-0.3-0.7-0.6-0.8-0.6s-0.7-0.5-1.2-1c-0.6-0.6-1.4-1.2-1.9-1.5c-0.5-0.2-1.1-0.6-1.2-0.8c-0.2-0.2-0.4-0.4-0.6-0.4
				c-0.5,0-1.9-1.7-1.9-2.2c0-0.3-0.1-0.5-0.2-0.6c-0.4-0.2-0.3-1.7,0.3-2.7c0.6-1.3,2-2.6,2.6-2.6c0.3,0,0.6-0.1,0.6-0.2
				c0.4-0.7,3.3,0.3,4.4,1.4c0.3,0.3,0.6,0.6,0.8,0.6c0.1,0,0.8,0.5,1.4,1.1c0.7,0.6,1.7,1.5,2.3,2c3.4,2.6,14,12.8,14,13.4
				c0,0.1,0.2,0.4,0.4,0.6c0.2,0.2,0.6,0.7,0.9,1.1c0.3,0.4,0.9,1.3,1.3,1.8c3.1,4,7.3,11.4,9.5,16.5c0.6,1.4,1.8,2,2.7,1.2
				c0.4-0.3,1.7-0.7,3.9-1.3c0.5-0.1,1.1-0.3,1.3-0.4c0.2-0.1,0.8-0.2,1.4-0.2c0.6,0,1.1-0.1,1.1-0.2c0.2-0.3,10.5-0.3,10.5,0
				c0,0.1,0.5,0.2,1.1,0.2c0.7,0,1.5,0.2,2.4,0.7c0.7,0.4,1.5,0.7,1.6,0.7c0.1,0,0.6,0.2,1,0.4s1.2,0.4,1.8,0.5l1.1,0.1l0.6-1.3
				c4.3-9.8,10.8-19.1,19.6-27.9c3.4-3.4,5.2-5,10.4-9.3c1.6-1.3,4.5-2.6,4.7-2c0,0.1,0.3,0.3,0.6,0.3c0.3,0,0.7,0.2,2.1,1.3
				c0.1,0.2,0.3,0.6,0.6,0.9c0.3,0.4,0.4,0.9,0.4,2.1c0,2.3-0.8,3.4-3.2,4.6c-0.8,0.4-1.8,1.1-2.2,1.6c-0.4,0.4-0.9,0.8-1,0.8
				s-0.6,0.4-1.1,0.9c-0.5,0.5-1,0.9-1.1,0.9c-0.5,0-8.1,7.1-8.1,7.6c0,0.1-0.3,0.5-0.7,0.9s-0.7,0.8-0.7,0.9c0,0.1-0.5,0.7-1.1,1.4
				c-0.6,0.6-1.1,1.2-1.1,1.4s-0.4,0.6-0.8,1c-0.4,0.4-1,1.2-1.2,1.7c-0.2,0.5-0.7,1.2-1,1.5c-0.3,0.3-0.6,0.7-0.6,0.8
				c0,0.1-0.2,0.4-0.3,0.6c-0.2,0.2-0.5,0.7-0.8,1.3c-0.2,0.5-0.5,1-0.7,1.1c-0.1,0.1-0.4,0.5-0.6,1c-0.2,0.5-0.5,1-0.7,1.2
				c-0.4,0.5-3.7,7-3.7,7.3c0,0.1-0.2,0.7-0.5,1.2c-0.4,0.8-0.5,1-0.2,1.6c0.2,0.4,0.4,0.7,0.6,0.7c0.2,0,0.4,0.2,0.5,0.5
				c0.1,0.3,0.8,1.1,1.5,1.7c0.7,0.7,1.3,1.3,1.3,1.4s0.3,0.5,0.6,1c1.6,1.9,1.9,2.3,2.7,3.9c0.5,0.9,1,1.9,1.2,2.1
				c0.6,1,1.4,3.1,2.3,6c0.5,1.7,1.1,3.4,1.2,3.7c0.1,0.4,0.2,1.2,0.2,1.9c0,1.5,0.5,3,0.9,3c0.2,0,1.5-0.4,2.9-0.9
				c3.6-1.3,6.2-2.1,8-2.7c0.9-0.2,3.3-1,5.3-1.6s4.4-1.4,5.3-1.6c0.9-0.2,2.2-0.6,3-0.9s1.6-0.4,1.8-0.4s0.8-0.2,1.3-0.5
				c0.5-0.2,1.3-0.5,1.8-0.5c0.5,0,0.9-0.1,1-0.2c0.1-0.1,0.5-0.3,0.9-0.3c0.7-0.1,1.1-0.2,3.5-0.8c0.5-0.1,1.3-0.3,1.8-0.5
				s1.4-0.3,1.9-0.5c0.5-0.1,1.4-0.3,2-0.4c1-0.2,1.9-0.4,4-0.9c0.5-0.1,1.4-0.3,1.9-0.4c0.6-0.1,1.5-0.3,2-0.5
				c0.6-0.1,1.5-0.3,2-0.4c0.6-0.1,1.1-0.2,1.2-0.3c0.1-0.1,0.6-0.2,1.1-0.2c0.8,0,1.8-0.2,3-0.7c0.2-0.1,1-0.2,1.7-0.3
				c3-0.3,3.8-0.4,4.2-0.6c0.2-0.1,1.2-0.3,2-0.3s2.3-0.2,3.2-0.4c0.9-0.1,2.4-0.3,3.5-0.3c1.1-0.1,2-0.2,2.1-0.3
				c0.1-0.1,1.4-0.2,2.8-0.2c1.6,0,2.6-0.1,2.6-0.2c0-0.3,17.3-0.3,17.5,0c0.1,0.1,0.8,0.2,1.6,0.2s1.5,0.1,1.6,0.2s0.8,0.2,1.6,0.2
				s1.7,0.1,2,0.2c0.3,0.1,1.1,0.3,1.8,0.5c4.8,1,10.3,3.1,12.5,4.5c0.5,0.4,1,0.7,1.1,0.7c0.4,0,2.3,1.6,3.8,3.1
				c2.9,3,3.6,4.5,4.4,9.4c0.2,1.2-0.3,3.9-1.3,7.5c-0.5,1.6-3,7-3.9,8.3c-0.3,0.4-0.7,1.1-0.9,1.6c-0.2,0.4-0.5,0.9-0.7,1.1
				c-0.3,0.5-2,3-2.2,3.3c0,0.1-0.3,0.6-0.7,0.9c-0.4,0.4-0.7,0.8-0.7,0.9c0,0.1-0.3,0.5-0.7,0.9c-0.4,0.4-0.7,0.8-0.7,0.9
				c0,0.1-0.4,0.6-0.9,1.1c-0.5,0.5-0.9,1-0.9,1.1c0,0.3-10.7,11-11,11c-0.1,0-0.7,0.5-1.3,1.1c-0.6,0.6-1.2,1.1-1.4,1.1
				s-0.5,0.3-0.9,0.7c-0.4,0.4-0.8,0.7-0.9,0.7s-0.5,0.3-0.9,0.7c-1.2,1.1-9.1,6.5-11.4,7.8c-11.9,6.4-19.7,8.3-29.2,7.1
				c-4.5-0.6-6.1-0.8-6.8-1.1c-0.3-0.1-1.8-0.6-3.2-1c-2.4-0.7-6.7-2.2-8.3-2.9c-0.4-0.2-1.5-0.6-2.5-1c-2-0.8-7.7-3.5-8.3-4
				c-0.2-0.1-1.2-0.7-2.1-1.2c-1-0.5-2.3-1.3-3-1.7s-1.8-1.1-2.5-1.5c-0.7-0.4-1.9-1.2-2.6-1.6s-1.3-0.9-1.4-0.9
				c-0.3,0-7.7-5.2-12.6-8.9c-2-1.5-3.7-2.8-4-2.9c-0.4-0.2-0.6,0.2-2.1,3.2c-1,1.9-1.7,3.5-1.7,3.7s0.2,0.4,0.5,0.7
				c0.3,0.2,1.9,2,3.6,3.9c3.8,4.2,6.1,7.2,9.6,12.5c0.5,0.7,1.5,2,2.3,2.8c0.8,0.9,1.6,1.9,1.8,2.3c0.2,0.4,0.5,0.8,0.7,0.8
				c0.3,0.1,0.4,0.4,0.4,1.9c0,1.9,0.2,2.6,2.3,8.2c1.2,3.2,1.6,4.6,2.6,9.2c0.3,1.2,0.6,2.7,0.7,3.2c0.3,1.4,0.5,6.1,0.5,11.8
				c0,6.1-0.3,8.9-1.3,11.6c-0.2,0.6-0.4,1.3-0.4,1.6c0,0.3-0.2,1.1-0.4,1.6c-0.8,1.8-0.9,2.2-0.9,2.7c0,0.2-0.3,1.1-0.7,1.9
				c-0.4,0.8-0.7,1.5-0.7,1.6s-0.4,1-0.9,2c-0.5,1.1-0.9,2-0.9,2.1c0,0.2-1.4,3.2-2,4.1c-0.3,0.5-1,1.7-1.4,2.6
				c-0.5,0.9-1,1.8-1.2,2c-0.2,0.2-0.5,0.7-0.7,1.2c-0.2,0.4-0.5,0.9-1.4,2.2c-0.2,0.2-0.5,0.7-0.8,1.2c-0.2,0.5-0.6,1.1-0.8,1.2
				c-1.1,1.8-3.9,5.8-4.9,7.3c0,0.1-0.3,0.6-0.7,0.9c-0.4,0.4-0.7,0.8-0.7,0.9s-0.4,0.6-0.9,1.1c-0.5,0.5-0.9,1-0.9,1.1
				s-0.3,0.5-0.7,0.9c-0.4,0.4-0.7,0.8-0.7,0.9c0,0.1-0.6,0.9-1.4,1.6c-0.7,0.7-1.4,1.4-1.4,1.6c0,0.1-0.7,0.9-1.6,1.8
				s-1.6,1.7-1.6,1.8s-0.5,0.7-1.1,1.4c-0.6,0.6-1.1,1.2-1.1,1.4c0,0.3-8,8.3-8.3,8.3c-0.1,0-0.7,0.5-1.3,1.1
				c-0.6,0.6-1.2,1.1-1.4,1.1c-0.1,0-0.8,0.6-1.6,1.4s-1.5,1.4-1.6,1.4c-0.1,0-0.5,0.3-0.9,0.7c-0.4,0.4-0.8,0.7-0.9,0.7
				c-0.1,0-0.5,0.2-0.8,0.5c-0.6,0.6-2,1.4-4.2,2.5C172,266.1,171.7,266.2,171.4,265.9L171.4,265.9z"/>
		</g>
		<g transform="matrix(1,0,0,1,0,0)">
			<path class="st2" d="M74.1,143.3c-9.3-1-17.7-5.3-30.5-15.5c-4-3.2-11.4-10.5-14.2-14c-7.1-8.9-10.5-17.3-8.9-22
				c0.5-1.4,2.1-3.3,3.7-4.3c3.2-2,9.8-3.9,16-4.5c2.8-0.3,14.2-0.5,13-0.3c-0.7,0.1-0.8,0.2-0.9,1c-0.1,0.7-0.2,0.8-0.6,0.9
				c-0.7,0-2.2,0.8-2,1c0.1,0.1,2,0.4,4.2,0.5c2.2,0.2,5.8,0.5,7.9,0.8c2.1,0.3,5.6,0.8,7.7,1.1c2.1,0.3,5.5,0.9,7.5,1.2
				c2,0.4,6.1,1.1,9.1,1.6c3,0.5,7,1.2,8.8,1.6c5.7,1.1,20.6,3.6,23.8,3.9c1.7,0.2,3.9,0.5,5,0.6c1.2,0.1,2.3,0.2,2.8,0
				c0.8-0.2,1.3-0.1,3.3,0.6c2.2,0.7,2.4,0.8,2.3,1.3c-0.1,0.3-0.2,0.7-0.2,1c0,0.6-2.5,1-37.1,5.2c-6.6,0.8-14,1.7-16.4,1.9
				c-2.4,0.3-7,0.8-10.2,1.2s-7.6,1-9.9,1.3c-2.2,0.3-4.3,0.6-4.7,0.8c-0.7,0.4-1.8,2.4-1.8,3.5c0,1.1,0.9,2.6,1.9,3.1
				c0.7,0.3,0.9,0.3,2.6,0c2.5-0.5,6.7-1.1,16.2-2.2c4.6-0.6,10.4-1.3,12.9-1.6c16.8-2.1,18.3-2.3,24-3.2c1.4-0.2,5-0.7,8-1.1
				c6.8-1,11-1.6,13.6-2c2.6-0.5,2.7-0.5,2.7,0.3c0,0.3,0.1,0.7,0.2,0.8c0.4,0.4-0.1,0.7-3.7,1.9c-3.5,1.2-9.1,3.1-15.7,5.5
				c-1.8,0.6-5,1.8-7,2.5c-9.3,3.3-12.6,4.6-13.6,5.6c-1.7,1.6-1.7,4.1,0,5.4c1.2,0.9,1.8,0.8,4.8-0.5c4.5-2.1,14.8-6,19-7.3
				c2.4-0.7,6.6-2.3,6.9-2.5c0.1-0.1,1.5-0.6,2.9-1.1l2.7-0.9l0.3,0.6c0.3,0.6,0.3,0.6-0.9,1.7c-1.6,1.4-10.7,7.6-15.4,10.5
				c-2.1,1.3-3.8,2.3-3.9,2.3c-0.1,0-1,0.5-2.1,1.2c-7.3,4.2-16.2,8-22.9,9.7C81.9,143.1,77,143.6,74.1,143.3L74.1,143.3z"/>
			<path class="st3" d="M74.1,143.3c-9.3-1-17.7-5.3-30.5-15.5c-4-3.2-11.4-10.5-14.2-14c-7.1-8.9-10.5-17.3-8.9-22
				c0.5-1.4,2.1-3.3,3.7-4.3c3.2-2,9.8-3.9,16-4.5c2.8-0.3,14.2-0.5,13-0.3c-0.7,0.1-0.8,0.2-0.9,1c-0.1,0.7-0.2,0.8-0.6,0.9
				c-0.7,0-2.2,0.8-2,1c0.1,0.1,2,0.4,4.2,0.5c2.2,0.2,5.8,0.5,7.9,0.8c2.1,0.3,5.6,0.8,7.7,1.1c2.1,0.3,5.5,0.9,7.5,1.2
				c2,0.4,6.1,1.1,9.1,1.6c3,0.5,7,1.2,8.8,1.6c5.7,1.1,20.6,3.6,23.8,3.9c1.7,0.2,3.9,0.5,5,0.6c1.2,0.1,2.3,0.2,2.8,0
				c0.8-0.2,1.3-0.1,3.3,0.6c2.2,0.7,2.4,0.8,2.3,1.3c-0.1,0.3-0.2,0.7-0.2,1c0,0.6-2.5,1-37.1,5.2c-6.6,0.8-14,1.7-16.4,1.9
				c-2.4,0.3-7,0.8-10.2,1.2s-7.6,1-9.9,1.3c-2.2,0.3-4.3,0.6-4.7,0.8c-0.7,0.4-1.8,2.4-1.8,3.5c0,1.1,0.9,2.6,1.9,3.1
				c0.7,0.3,0.9,0.3,2.6,0c2.5-0.5,6.7-1.1,16.2-2.2c4.6-0.6,10.4-1.3,12.9-1.6c16.8-2.1,18.3-2.3,24-3.2c1.4-0.2,5-0.7,8-1.1
				c6.8-1,11-1.6,13.6-2c2.6-0.5,2.7-0.5,2.7,0.3c0,0.3,0.1,0.7,0.2,0.8c0.4,0.4-0.1,0.7-3.7,1.9c-3.5,1.2-9.1,3.1-15.7,5.5
				c-1.8,0.6-5,1.8-7,2.5c-9.3,3.3-12.6,4.6-13.6,5.6c-1.7,1.6-1.7,4.1,0,5.4c1.2,0.9,1.8,0.8,4.8-0.5c4.5-2.1,14.8-6,19-7.3
				c2.4-0.7,6.6-2.3,6.9-2.5c0.1-0.1,1.5-0.6,2.9-1.1l2.7-0.9l0.3,0.6c0.3,0.6,0.3,0.6-0.9,1.7c-1.6,1.4-10.7,7.6-15.4,10.5
				c-2.1,1.3-3.8,2.3-3.9,2.3c-0.1,0-1,0.5-2.1,1.2c-7.3,4.2-16.2,8-22.9,9.7C81.9,143.1,77,143.6,74.1,143.3L74.1,143.3z"/>
		</g>
		<g transform="matrix(1,0,0,1,0,0)">
			<path class="st2" d="M265.4,141.8c-4.5-0.5-10.2-1.7-14.4-3.1c-8.7-2.9-21.2-9.7-32.3-17.6c-1.7-1.2-3.4-2.4-3.9-2.8
				c-0.7-0.5-0.8-0.7-0.2-2.1c12.6,4,27.5,9.4,31.6,11.4c1.4,0.7,2.1,0.9,3.3,1c1.6,0.1,2.2-0.2,1.9-0.8c-0.1-0.2-0.1-0.6,0.1-0.9
				c0.5-0.9,0.4-2.9-0.1-3.8c-0.7-1.1-1.9-1.7-8.2-3.9c-8.4-3-31.4-10.8-33.9-11.4c-1-0.3-1.1-0.7-0.4-1.6l0.5-0.6l3.6,0.5
				c2,0.3,6.3,0.9,9.6,1.4c3.3,0.5,8,1.1,10.4,1.4c11.7,1.5,20.6,2.6,24.3,3.1c2.2,0.3,6.5,0.8,9.5,1.1c3,0.4,8.7,1,12.8,1.5
				c4,0.4,7.8,0.9,8.3,1c2.1,0.5,3.9-0.1,4.4-1.4c0.4-1.1,0.3-2.6-0.3-3.6c-1-1.7-1.4-1.8-13.6-3.2c-6-0.7-14.4-1.6-18.8-2.1
				c-8.4-0.8-21.4-2.3-27.1-3c-1.9-0.2-7-0.9-11.4-1.5s-8.5-1.1-9-1.2c-0.9-0.1-1-0.2-1-0.7c0-0.6,0.2-0.7,2.6-1.4
				c1.4-0.5,2.7-0.9,2.9-1c0.2-0.1,0.4-0.2,0.6-0.2s1-0.3,2-0.7c2-0.7,12.7-3.7,16.8-4.8c8.7-2.3,23.5-5.4,25.8-5.2
				c0.5,0.3,2.1,0.1,9.3-1.1c4.9-0.8,6.3-0.8,5-0.1c-0.2,0.1-0.5,0.3-0.5,0.4c0,0.1,3.7,0.2,8.6,0.2c9.5,0,11.5,0.1,17.2,1.2
				c8.3,1.6,12.1,3,15.4,5.5c1.2,0.9,1.5,1,2,0.9c0.3-0.1,0.9-0.2,1.2-0.2s0.7-0.1,0.8-0.1c0.1,0,0.6-0.3,0.9-0.6
				c0.5-0.4,0.8-0.5,1.4-0.4l0.8,0.2l0.1,1.8c0.1,1.4-0.1,2.1-0.5,3.6c-2.8,8.8-11.3,19.9-22.1,28.8c-5.8,4.8-13.8,10.1-18.5,12.3
				C277.2,140.7,269.9,142.3,265.4,141.8L265.4,141.8z"/>
			<path class="st3" d="M265.4,141.8c-4.5-0.5-10.2-1.7-14.4-3.1c-8.7-2.9-21.2-9.7-32.3-17.6c-1.7-1.2-3.4-2.4-3.9-2.8
				c-0.7-0.5-0.8-0.7-0.2-2.1c12.6,4,27.5,9.4,31.6,11.4c1.4,0.7,2.1,0.9,3.3,1c1.6,0.1,2.2-0.2,1.9-0.8c-0.1-0.2-0.1-0.6,0.1-0.9
				c0.5-0.9,0.4-2.9-0.1-3.8c-0.7-1.1-1.9-1.7-8.2-3.9c-8.4-3-31.4-10.8-33.9-11.4c-1-0.3-1.1-0.7-0.4-1.6l0.5-0.6l3.6,0.5
				c2,0.3,6.3,0.9,9.6,1.4c3.3,0.5,8,1.1,10.4,1.4c11.7,1.5,20.6,2.6,24.3,3.1c2.2,0.3,6.5,0.8,9.5,1.1c3,0.4,8.7,1,12.8,1.5
				c4,0.4,7.8,0.9,8.3,1c2.1,0.5,3.9-0.1,4.4-1.4c0.4-1.1,0.3-2.6-0.3-3.6c-1-1.7-1.4-1.8-13.6-3.2c-6-0.7-14.4-1.6-18.8-2.1
				c-8.4-0.8-21.4-2.3-27.1-3c-1.9-0.2-7-0.9-11.4-1.5s-8.5-1.1-9-1.2c-0.9-0.1-1-0.2-1-0.7c0-0.6,0.2-0.7,2.6-1.4
				c1.4-0.5,2.7-0.9,2.9-1c0.2-0.1,0.4-0.2,0.6-0.2s1-0.3,2-0.7c2-0.7,12.7-3.7,16.8-4.8c8.7-2.3,23.5-5.4,25.8-5.2
				c0.5,0.3,2.1,0.1,9.3-1.1c4.9-0.8,6.3-0.8,5-0.1c-0.2,0.1-0.5,0.3-0.5,0.4c0,0.1,3.7,0.2,8.6,0.2c9.5,0,11.5,0.1,17.2,1.2
				c8.3,1.6,12.1,3,15.4,5.5c1.2,0.9,1.5,1,2,0.9c0.3-0.1,0.9-0.2,1.2-0.2s0.7-0.1,0.8-0.1c0.1,0,0.6-0.3,0.9-0.6
				c0.5-0.4,0.8-0.5,1.4-0.4l0.8,0.2l0.1,1.8c0.1,1.4-0.1,2.1-0.5,3.6c-2.8,8.8-11.3,19.9-22.1,28.8c-5.8,4.8-13.8,10.1-18.5,12.3
				C277.2,140.7,269.9,142.3,265.4,141.8L265.4,141.8z"/>
		</g>
		<g transform="matrix(1,0,0,1,0,0)">
			<path class="st2" d="M167.6,133.7c-0.4,0-1.6-0.3-2.6-0.5c-7.4-1.7-13.7-6.7-16.9-13.2c-1.6-3.2-2.9-7.6-3.4-11.3
				c-1.1-7.7,1.2-21.2,4.8-28.8c1.6-3.3,3.1-5.5,5.4-7.7c2.3-2.2,3.4-3,6.1-4.2c3.2-1.5,8.7-2.8,9.5-2.2c0.2,0.1,0.7,0.3,1.1,0.4
				c1.1,0.2,5.7,2,7,2.7c1.5,0.9,5.5,4.3,7,6c2.5,3,4.6,6.5,7.2,12.4c0.5,1,0.9,2.1,0.9,2.3c0,0.2,0.2,0.6,0.4,0.9
				c0.3,0.5,0.7,2.2,1,3.8c0.3,1.4,0.4,2,0.6,2.1c0.1,0.1,0.1,2.3,0,5c-0.2,5.7-0.7,8.9-2.3,13.2c-1.5,4.2-2.3,5.6-4.3,8.2
				c-1.2,1.6-1.3,2.2-0.2,2.3c0.8,0.1,1.4-0.3,1.4-0.9c0-0.2,0.6-1.2,1.3-2.2c1.8-2.4,3.4-4.6,3.8-5.1c0.3-2.5,3.3-1.3,1.7,0.2
				c-0.5-0.1-0.8,0.2-1.5,1.9c-0.5,1.2-0.6,1.5-0.3,1.7c0.3,0.2,0.2,0.5-0.7,1.8c-3.8,5.8-11.1,10.3-17.8,11.2
				C175,133.8,169.1,133.9,167.6,133.7L167.6,133.7z"/>
			<path class="st3" d="M167.6,133.7c-0.4,0-1.6-0.3-2.6-0.5c-7.4-1.7-13.7-6.7-16.9-13.2c-1.6-3.2-2.9-7.6-3.4-11.3
				c-1.1-7.7,1.2-21.2,4.8-28.8c1.6-3.3,3.1-5.5,5.4-7.7c2.3-2.2,3.4-3,6.1-4.2c3.2-1.5,8.7-2.8,9.5-2.2c0.2,0.1,0.7,0.3,1.1,0.4
				c1.1,0.2,5.7,2,7,2.7c1.5,0.9,5.5,4.3,7,6c2.5,3,4.6,6.5,7.2,12.4c0.5,1,0.9,2.1,0.9,2.3c0,0.2,0.2,0.6,0.4,0.9
				c0.3,0.5,0.7,2.2,1,3.8c0.3,1.4,0.4,2,0.6,2.1c0.1,0.1,0.1,2.3,0,5c-0.2,5.7-0.7,8.9-2.3,13.2c-1.5,4.2-2.3,5.6-4.3,8.2
				c-1.2,1.6-1.3,2.2-0.2,2.3c0.8,0.1,1.4-0.3,1.4-0.9c0-0.2,0.6-1.2,1.3-2.2c1.8-2.4,3.4-4.6,3.8-5.1c0.3-2.5,3.3-1.3,1.7,0.2
				c-0.5-0.1-0.8,0.2-1.5,1.9c-0.5,1.2-0.6,1.5-0.3,1.7c0.3,0.2,0.2,0.5-0.7,1.8c-3.8,5.8-11.1,10.3-17.8,11.2
				C175,133.8,169.1,133.9,167.6,133.7L167.6,133.7z"/>
		</g>
		<g transform="matrix(1,0,0,1,0,0)">
			<path class="st2" d="M161.3,213.3c-10.4-0.9-21.9-3.3-28.4-6c-1.4-0.6-1.7-0.8-2.2-1.7c-1.2-2.2-3.2-9.1-3.7-12.8
				c-0.2-1.4-0.4-2.6-0.5-2.7c-0.3-0.5,0.8-0.3,3.9,0.8c17.7,6.3,45.3,7.8,68.6,3.7c2.9-0.5,9.8-2.2,11.8-2.9
				c1.6-0.6,2.1-0.6,1.7-0.1c-0.2,0.2-0.4,1.1-0.6,2c-0.4,2.1-1,4.3-1.9,6.5c-0.8,2-0.8,2.2-0.1,2.5c0.6,0.3,0.9,0.1,2.6-1.9
				c0.3-0.4,0.9-0.9,1.3-1.1c0.7-0.4,1.3-0.2,1.1,0.4c-0.1,0.2,0,0.4,0.1,0.4c0.3,0.1-0.7,2.7-1.8,3.7c-0.3-0.1-1.2,1.4-1,1.6
				c0.2,0.4-0.5,0.9-2.5,1.7c-5.8,2.4-12.8,4-23.3,5.4c-3.9,0.5-5.1,0.6-13,0.7C167.5,213.6,163.7,213.5,161.3,213.3L161.3,213.3z"
				/>
			<path class="st3" d="M161.3,213.3c-10.4-0.9-21.9-3.3-28.4-6c-1.4-0.6-1.7-0.8-2.2-1.7c-1.2-2.2-3.2-9.1-3.7-12.8
				c-0.2-1.4-0.4-2.6-0.5-2.7c-0.3-0.5,0.8-0.3,3.9,0.8c17.7,6.3,45.3,7.8,68.6,3.7c2.9-0.5,9.8-2.2,11.8-2.9
				c1.6-0.6,2.1-0.6,1.7-0.1c-0.2,0.2-0.4,1.1-0.6,2c-0.4,2.1-1,4.3-1.9,6.5c-0.8,2-0.8,2.2-0.1,2.5c0.6,0.3,0.9,0.1,2.6-1.9
				c0.3-0.4,0.9-0.9,1.3-1.1c0.7-0.4,1.3-0.2,1.1,0.4c-0.1,0.2,0,0.4,0.1,0.4c0.3,0.1-0.7,2.7-1.8,3.7c-0.3-0.1-1.2,1.4-1,1.6
				c0.2,0.4-0.5,0.9-2.5,1.7c-5.8,2.4-12.8,4-23.3,5.4c-3.9,0.5-5.1,0.6-13,0.7C167.5,213.6,163.7,213.5,161.3,213.3L161.3,213.3z"
				/>
		</g>
		<g transform="matrix(1,0,0,1,0,0)">
			<path class="st2" d="M166,180.3c-12.7-0.6-23.4-2.3-32.6-5.1c-3.7-1.1-5.6-1.9-5.9-2.2c-0.3-0.5,3.2-12.3,4-13.2
				c0.1-0.1,1.7,0.3,3.7,1c9.5,3.1,18.7,4.7,31.4,5.3c14,0.7,28.3-1.1,40.2-4.9l1.7-0.5l0.3,0.6c0.7,1.5,2.5,7.2,3.2,9.9
				c0.7,2.6,0.7,3,0.4,3.3c-0.8,0.8-9.6,3-16.3,4.1C186.8,180,175.1,180.7,166,180.3L166,180.3z"/>
			<path class="st3" d="M166,180.3c-12.7-0.6-23.4-2.3-32.6-5.1c-3.7-1.1-5.6-1.9-5.9-2.2c-0.3-0.5,3.2-12.3,4-13.2
				c0.1-0.1,1.7,0.3,3.7,1c9.5,3.1,18.7,4.7,31.4,5.3c14,0.7,28.3-1.1,40.2-4.9l1.7-0.5l0.3,0.6c0.7,1.5,2.5,7.2,3.2,9.9
				c0.7,2.6,0.7,3,0.4,3.3c-0.8,0.8-9.6,3-16.3,4.1C186.8,180,175.1,180.7,166,180.3L166,180.3z"/>
		</g>
		<g transform="matrix(1,0,0,1,0,0)">
			<path class="st4" d="M189.3,123.3c-0.3-0.1-0.6-0.2-0.6-0.2c0-0.1,0.3-0.5,0.6-0.9c2.6-3.3,4.7-9,5.9-15.5
				c0.5-2.6,0.6-8.7,0.3-11.2c-0.3-2.3-0.5-3-1.3-4.5c-0.3-0.6-0.6-1.2-0.7-1.4c0-0.2-0.4-1.2-0.9-2.3c-2.6-5.9-4.6-9.4-7.2-12.4
				c-1.5-1.8-5.5-5.2-7.1-6.1c-1.1-0.6-4.7-2.1-6.5-2.6c-0.5-0.1-0.9-0.4-1-0.6c-0.1-0.3,0.3-0.3,2.5-0.2c4.3,0.2,6.4,0.8,10.4,2.8
				c3.3,1.7,3.6,1.8,5.7,3.9c4.8,4.8,7.7,11.5,9.5,21.7c0.5,3.1,1.1,10.7,0.8,10.8c-0.1,0-0.2,0.6-0.1,1.3c0.1,1.6-0.1,2.1-1.1,2
				c-0.3-0.2-0.7,0.8-0.9,2.6c-0.1,0.8-0.5,2-0.9,2.8c-0.4,0.7-0.6,1.4-0.5,1.5c0.4,0.2,0.2,0.7-1,2.1c-0.5,0.6-2.2,2.9-3.6,4.9
				c-0.7,1-1.3,1.7-1.4,1.7C190,123.4,189.7,123.3,189.3,123.3L189.3,123.3z"/>
			<path class="st5" d="M189.3,123.3c-0.3-0.1-0.6-0.2-0.6-0.2c0-0.1,0.3-0.5,0.6-0.9c2.6-3.3,4.7-9,5.9-15.5
				c0.5-2.6,0.6-8.7,0.3-11.2c-0.3-2.3-0.5-3-1.3-4.5c-0.3-0.6-0.6-1.2-0.7-1.4c0-0.2-0.4-1.2-0.9-2.3c-2.6-5.9-4.6-9.4-7.2-12.4
				c-1.5-1.8-5.5-5.2-7.1-6.1c-1.1-0.6-4.7-2.1-6.5-2.6c-0.5-0.1-0.9-0.4-1-0.6c-0.1-0.3,0.3-0.3,2.5-0.2c4.3,0.2,6.4,0.8,10.4,2.8
				c3.3,1.7,3.6,1.8,5.7,3.9c4.8,4.8,7.7,11.5,9.5,21.7c0.5,3.1,1.1,10.7,0.8,10.8c-0.1,0-0.2,0.6-0.1,1.3c0.1,1.6-0.1,2.1-1.1,2
				c-0.3-0.2-0.7,0.8-0.9,2.6c-0.1,0.8-0.5,2-0.9,2.8c-0.4,0.7-0.6,1.4-0.5,1.5c0.4,0.2,0.2,0.7-1,2.1c-0.5,0.6-2.2,2.9-3.6,4.9
				c-0.7,1-1.3,1.7-1.4,1.7C190,123.4,189.7,123.3,189.3,123.3L189.3,123.3z"/>
		</g>
		<g transform="matrix(1,0,0,1,0,0)">
			<path class="st2" d="M166.2,156.7c-2.5-0.2-3.4-0.3-5.8-1c-0.7-0.2-4.2-0.8-7.8-1.4c-5.1-0.8-7.1-1.2-8.9-1.8
				c-2.9-1-3.4-1.2-4.1-2c-1.2-1.3-0.4-3.2,3.2-6.8c1.2-1.2,2.2-2.4,2.4-2.9c0.2-0.5,0.7-1.4,1.1-1.9c1.6-2.2,3.4-2.4,6.1-0.7
				c2,1.3,5.6,3.1,7.5,3.7c5.2,1.7,12.5,2,19,0.9c4-0.7,5.6-1.3,9.4-3.3c4.3-2.3,5.2-2.7,5.6-2.3c1.4,1.5,8.2,10.4,7.9,10.4
				c-0.1,0,0.2,0.3,0.6,0.7c1.6,1.7,2.4,2.8,2.3,3c-0.1,0.1-0.2,0.3-0.2,0.4c0,0.3-1.3,0.7-5.9,1.9
				C187.8,156.3,176.7,157.3,166.2,156.7L166.2,156.7z"/>
			<path class="st3" d="M166.2,156.7c-2.5-0.2-3.4-0.3-5.8-1c-0.7-0.2-4.2-0.8-7.8-1.4c-5.1-0.8-7.1-1.2-8.9-1.8
				c-2.9-1-3.4-1.2-4.1-2c-1.2-1.3-0.4-3.2,3.2-6.8c1.2-1.2,2.2-2.4,2.4-2.9c0.2-0.5,0.7-1.4,1.1-1.9c1.6-2.2,3.4-2.4,6.1-0.7
				c2,1.3,5.6,3.1,7.5,3.7c5.2,1.7,12.5,2,19,0.9c4-0.7,5.6-1.3,9.4-3.3c4.3-2.3,5.2-2.7,5.6-2.3c1.4,1.5,8.2,10.4,7.9,10.4
				c-0.1,0,0.2,0.3,0.6,0.7c1.6,1.7,2.4,2.8,2.3,3c-0.1,0.1-0.2,0.3-0.2,0.4c0,0.3-1.3,0.7-5.9,1.9
				C187.8,156.3,176.7,157.3,166.2,156.7L166.2,156.7z"/>
		</g>
		<g transform="matrix(1,0,0,1,0,0)">
			<path class="st6" d="M157.3,155.9c-5.5-0.7-12.6-2.1-16.1-3.2c-3-1-4.7-1.6-5-1.8c-0.1-0.1,0.4-1.1,1.1-2.3
				c2.1-3.5,5.7-8,8.7-11.1l2.8-2.9l1.2,0.9c4.1,3.2,9.4,5.5,15.3,6.7c3.1,0.6,10.5,0.6,13.6-0.1c4.5-1,9.4-3,13-5.5
				c0,0,1.3-0.9,1.8,0.3c0,0-0.4,0.2-1,0.5c-0.5,0.2-2.5,1.2-4.3,2.2c-3.8,2.1-5.5,2.7-9.4,3.3c-6.5,1.1-13.8,0.8-19-0.9
				c-1.9-0.6-5.5-2.4-7.5-3.7c-2.7-1.8-4.4-1.6-6.1,0.7c-0.4,0.5-0.9,1.4-1.1,1.9c-0.2,0.5-1.3,1.8-2.4,2.9
				c-3.6,3.6-4.5,5.4-3.2,6.8c0.7,0.8,1.2,1,4.1,2c1.9,0.6,3.8,1,8.9,1.8c3.6,0.6,7.1,1.2,7.8,1.4c0.7,0.2,1.6,0.4,2.1,0.5l0.9,0.2
				l-1,0C161.9,156.4,159.6,156.2,157.3,155.9L157.3,155.9z"/>
			<path class="st7" d="M157.3,155.9c-5.5-0.7-12.6-2.1-16.1-3.2c-3-1-4.7-1.6-5-1.8c-0.1-0.1,0.4-1.1,1.1-2.3
				c2.1-3.5,5.7-8,8.7-11.1l2.8-2.9l1.2,0.9c4.1,3.2,9.4,5.5,15.3,6.7c3.1,0.6,10.5,0.6,13.6-0.1c4.5-1,9.4-3,13-5.5
				c0,0,1.3-0.9,1.8,0.3c0,0-0.4,0.2-1,0.5c-0.5,0.2-2.5,1.2-4.3,2.2c-3.8,2.1-5.5,2.7-9.4,3.3c-6.5,1.1-13.8,0.8-19-0.9
				c-1.9-0.6-5.5-2.4-7.5-3.7c-2.7-1.8-4.4-1.6-6.1,0.7c-0.4,0.5-0.9,1.4-1.1,1.9c-0.2,0.5-1.3,1.8-2.4,2.9
				c-3.6,3.6-4.5,5.4-3.2,6.8c0.7,0.8,1.2,1,4.1,2c1.9,0.6,3.8,1,8.9,1.8c3.6,0.6,7.1,1.2,7.8,1.4c0.7,0.2,1.6,0.4,2.1,0.5l0.9,0.2
				l-1,0C161.9,156.4,159.6,156.2,157.3,155.9L157.3,155.9z"/>
		</g>
		<g transform="matrix(1,0,0,1,0,0)">
			<path class="st2" d="M168.8,237.7c-6.1-0.6-11.1-1.3-15.1-2.3c-4-1-4.1-1.1-5.3-2.6c-0.6-0.8-1.8-2.2-2.6-3.2
				c-2.5-2.9-5.7-7.8-5-7.8c0,0,1.8,0.5,3.9,1c13.3,3.5,29.3,4.2,44.8,2c4.3-0.6,10.6-2.1,12.6-2.9c0.9-0.4,2-0.2,1.8,0.2
				c-0.4,1.1-6.1,8.7-8.1,10.9c-1,1.1-1.3,1.2-3.6,2c-3.2,1-7,1.8-10.8,2.2C178.1,237.6,170.7,237.9,168.8,237.7L168.8,237.7z"/>
			<path class="st3" d="M168.8,237.7c-6.1-0.6-11.1-1.3-15.1-2.3c-4-1-4.1-1.1-5.3-2.6c-0.6-0.8-1.8-2.2-2.6-3.2
				c-2.5-2.9-5.7-7.8-5-7.8c0,0,1.8,0.5,3.9,1c13.3,3.5,29.3,4.2,44.8,2c4.3-0.6,10.6-2.1,12.6-2.9c0.9-0.4,2-0.2,1.8,0.2
				c-0.4,1.1-6.1,8.7-8.1,10.9c-1,1.1-1.3,1.2-3.6,2c-3.2,1-7,1.8-10.8,2.2C178.1,237.6,170.7,237.9,168.8,237.7L168.8,237.7z"/>
		</g>
		<g transform="matrix(1,0,0,1,0,0)">
			<path class="st8" d="M117.7,96.3c-3.6-0.5-17.9-2.9-22.7-3.8c-1.9-0.4-5.8-1.1-8.8-1.6c-3-0.5-7.1-1.2-9.1-1.6
				c-2-0.4-5.4-0.9-7.5-1.2c-2.1-0.3-5.6-0.8-7.7-1.1c-2.1-0.3-5.7-0.7-7.9-0.8c-2.3-0.2-4.1-0.4-4.2-0.5c-0.3-0.5,1.6-1.1,4.6-1.3
				c1.6-0.1,3.2-0.3,3.4-0.3c0.2-0.1,2.3-0.2,4.5-0.3c4.5-0.2,5.5-0.1,14.9,1.4c11.4,1.8,24.1,4.5,36.2,7.8c3,0.8,8.2,2.2,10.2,2.7
				c0.9,0.2,0.9,0.3,0.7,0.7c-0.2,0.4-0.5,0.4-2,0.4C121.5,96.7,119.4,96.5,117.7,96.3L117.7,96.3z"/>
			<path class="st9" d="M117.7,96.3c-3.6-0.5-17.9-2.9-22.7-3.8c-1.9-0.4-5.8-1.1-8.8-1.6c-3-0.5-7.1-1.2-9.1-1.6
				c-2-0.4-5.4-0.9-7.5-1.2c-2.1-0.3-5.6-0.8-7.7-1.1c-2.1-0.3-5.7-0.7-7.9-0.8c-2.3-0.2-4.1-0.4-4.2-0.5c-0.3-0.5,1.6-1.1,4.6-1.3
				c1.6-0.1,3.2-0.3,3.4-0.3c0.2-0.1,2.3-0.2,4.5-0.3c4.5-0.2,5.5-0.1,14.9,1.4c11.4,1.8,24.1,4.5,36.2,7.8c3,0.8,8.2,2.2,10.2,2.7
				c0.9,0.2,0.9,0.3,0.7,0.7c-0.2,0.4-0.5,0.4-2,0.4C121.5,96.7,119.4,96.5,117.7,96.3L117.7,96.3z"/>
		</g>
		<g transform="matrix(1,0,0,1,0,0)">
			<path class="st8" d="M316.8,91.7c-3.2-2.5-7.1-3.9-15.4-5.5c-5.2-1-13.6-1.8-17.4-1.5c-5.4,0.3-8.5,0.4-8.5,0.2
				c0-0.3,1.9-1.4,2.5-1.4c0.4,0,1.3-0.4,1.6-0.7c0.5-0.5,6-1,13-1.3c9.5-0.3,19.6,1.4,25.8,4.4c2.3,1.1,4.6,3,4.6,3.7
				c0,0.2,0.1,0.4,0.2,0.4c0.2,0,0.7,1,0.7,1.3c0,0.1-0.3,0.1-0.8,0c-0.6-0.1-0.9,0-1.2,0.3c-0.4,0.4-1.4,0.8-2.1,0.9
				c-0.2,0-0.6,0.1-1,0.1C318.2,92.7,317.9,92.5,316.8,91.7L316.8,91.7z"/>
			<path class="st9" d="M316.8,91.7c-3.2-2.5-7.1-3.9-15.4-5.5c-5.2-1-13.6-1.8-17.4-1.5c-5.4,0.3-8.5,0.4-8.5,0.2
				c0-0.3,1.9-1.4,2.5-1.4c0.4,0,1.3-0.4,1.6-0.7c0.5-0.5,6-1,13-1.3c9.5-0.3,19.6,1.4,25.8,4.4c2.3,1.1,4.6,3,4.6,3.7
				c0,0.2,0.1,0.4,0.2,0.4c0.2,0,0.7,1,0.7,1.3c0,0.1-0.3,0.1-0.8,0c-0.6-0.1-0.9,0-1.2,0.3c-0.4,0.4-1.4,0.8-2.1,0.9
				c-0.2,0-0.6,0.1-1,0.1C318.2,92.7,317.9,92.5,316.8,91.7L316.8,91.7z"/>
		</g>
		<g transform="matrix(1,0,0,1,0,0)">
			<path class="st2" d="M170.2,254.8c-4.8-3.3-11.4-9-11-9.4c0.2-0.2,1.1-0.1,2.9,0.1c3.6,0.5,14.7,0.5,18.3,0
				c2.3-0.3,2.5-0.3,2.9,0.1c0.9,0.9,0.6,1.5-1.5,3.3c-4.2,3.6-8.3,6.6-9.4,6.9C172,255.9,171.5,255.7,170.2,254.8L170.2,254.8z"/>
			<path class="st3" d="M170.2,254.8c-4.8-3.3-11.4-9-11-9.4c0.2-0.2,1.1-0.1,2.9,0.1c3.6,0.5,14.7,0.5,18.3,0
				c2.3-0.3,2.5-0.3,2.9,0.1c0.9,0.9,0.6,1.5-1.5,3.3c-4.2,3.6-8.3,6.6-9.4,6.9C172,255.9,171.5,255.7,170.2,254.8L170.2,254.8z"/>
		</g>
		<g transform="matrix(1,0,0,1,0,0)">
			<path class="st4" d="M203,148.9c-0.6-0.7-1.1-1.3-1.1-1.3c0.2,0-3-4.2-5.7-7.6c-1.4-1.7-2.6-3.4-2.8-3.8
				c-0.2-0.5-0.1-0.6,0.8-1.3c0.6-0.4,1.2-0.6,1.3-0.5c0.5,0.3,5.8,6,7.2,7.8c0.8,1,1.5,1.9,1.6,2.1c0.9,1.1,2.3,3.4,2.3,3.7
				c0,0.5-1.2,1.8-1.7,1.8c-0.2,0-0.5,0.1-0.7,0.1C204.3,150.1,203.7,149.6,203,148.9L203,148.9z"/>
			<path class="st5" d="M203,148.9c-0.6-0.7-1.1-1.3-1.1-1.3c0.2,0-3-4.2-5.7-7.6c-1.4-1.7-2.6-3.4-2.8-3.8
				c-0.2-0.5-0.1-0.6,0.8-1.3c0.6-0.4,1.2-0.6,1.3-0.5c0.5,0.3,5.8,6,7.2,7.8c0.8,1,1.5,1.9,1.6,2.1c0.9,1.1,2.3,3.4,2.3,3.7
				c0,0.5-1.2,1.8-1.7,1.8c-0.2,0-0.5,0.1-0.7,0.1C204.3,150.1,203.7,149.6,203,148.9L203,148.9z"/>
		</g>
		<g transform="matrix(1,0,0,1,0,0)">
			<path class="st4" d="M212.2,172c-0.1-0.4-0.4-1.6-0.7-2.7s-1-3.3-1.6-5.1c-0.6-1.7-1.2-3.3-1.2-3.5c0-0.3,3.9-2,4.1-1.8
				c0,0,0.6,1.7,1.3,3.7c1.3,3.8,2,6.3,2.3,8.1c0.2,1,0.2,1-0.5,1c-0.4,0-0.8,0.1-0.9,0.3c-0.1,0.1-0.3,0.2-0.3,0.1
				c0-0.1-0.5,0-1.1,0.2c-0.6,0.2-1.1,0.3-1.1,0.3C212.5,172.7,212.4,172.4,212.2,172L212.2,172z"/>
			<path class="st5" d="M212.2,172c-0.1-0.4-0.4-1.6-0.7-2.7s-1-3.3-1.6-5.1c-0.6-1.7-1.2-3.3-1.2-3.5c0-0.3,3.9-2,4.1-1.8
				c0,0,0.6,1.7,1.3,3.7c1.3,3.8,2,6.3,2.3,8.1c0.2,1,0.2,1-0.5,1c-0.4,0-0.8,0.1-0.9,0.3c-0.1,0.1-0.3,0.2-0.3,0.1
				c0-0.1-0.5,0-1.1,0.2c-0.6,0.2-1.1,0.3-1.1,0.3C212.5,172.7,212.4,172.4,212.2,172L212.2,172z"/>
		</g>
		<g transform="matrix(1,0,0,1,0,0)">
			<path class="st10" d="M262.2,85.4c0.1-0.4,0.4-0.4,5.9-1.4c4-0.7,11.1-1.7,12.1-1.7c0.6,0.3-1.1,0.3-0.7,0.4
				c0,0.3-1.1,0.7-1.7,0.7c-0.3,0-0.7,0.2-1,0.4c-0.3,0.2-0.5,0.3-0.5,0.2c0-0.2-1.6-0.1-4.1,0.3c-2.8,0.5-9.5,1.5-9.8,1.5
				C262.3,85.7,262.2,85.6,262.2,85.4L262.2,85.4z"/>
			<path class="st11" d="M262.2,85.4c0.1-0.4,0.4-0.4,5.9-1.4c4-0.7,11.1-1.7,12.1-1.7c0.6,0.3-1.1,0.3-0.7,0.4
				c0,0.3-1.1,0.7-1.7,0.7c-0.3,0-0.7,0.2-1,0.4c-0.3,0.2-0.5,0.3-0.5,0.2c0-0.2-1.6-0.1-4.1,0.3c-2.8,0.5-9.5,1.5-9.8,1.5
				C262.3,85.7,262.2,85.6,262.2,85.4L262.2,85.4z"/>
		</g>
		<g transform="matrix(1,0,0,1,0,0)">
			<path class="st4" d="M210,202.5c-0.7-0.3-0.6-0.5,0.1-2.5c0.8-2.1,1.5-4.4,1.8-6.4c0.4-2.1,0.5-2.3,1.1-1.8
				c0.3,0.2,0.6,0.4,0.9,0.3c1-0.3,1.2,0,1.1,2.5c-0.1,2.3-0.5,3.7-1.9,5.6c-0.1,0-0.6,0.6-1.1,1.2C211,202.6,210.7,202.8,210,202.5
				L210,202.5z"/>
			<path class="st5" d="M210,202.5c-0.7-0.3-0.6-0.5,0.1-2.5c0.8-2.1,1.5-4.4,1.8-6.4c0.4-2.1,0.5-2.3,1.1-1.8
				c0.3,0.2,0.6,0.4,0.9,0.3c1-0.3,1.2,0,1.1,2.5c-0.1,2.3-0.5,3.7-1.9,5.6c-0.1,0-0.6,0.6-1.1,1.2C211,202.6,210.7,202.8,210,202.5
				L210,202.5z"/>
		</g>
		<g transform="matrix(1,0,0,1,0,0)">
			<path class="st12" d="M215.1,194.4c0.1-2.4-0.1-2.6-1.1-2.3c-0.7,0.2-1.1-0.4-0.8-0.9c0.4-0.5,4.3-2,4.5-1.8
				c0.1,0.1-0.1,1.5-0.4,3.1c-0.8,3.9-0.7,3.8-1.2,3.5c-0.6-0.3-0.9-0.3-1,0.2C215,196.4,215,195.6,215.1,194.4L215.1,194.4z"/>
			<path class="st13" d="M215.1,194.4c0.1-2.4-0.1-2.6-1.1-2.3c-0.7,0.2-1.1-0.4-0.8-0.9c0.4-0.5,4.3-2,4.5-1.8
				c0.1,0.1-0.1,1.5-0.4,3.1c-0.8,3.9-0.7,3.8-1.2,3.5c-0.6-0.3-0.9-0.3-1,0.2C215,196.4,215,195.6,215.1,194.4L215.1,194.4z"/>
		</g>
		<g transform="matrix(1,0,0,1,0,0)">
			<path class="st14" d="M204.7,151.7c-0.1-0.1,0-0.3-0.6-1.6l0.9-0.2c0.9-0.2,1.8-1.2,1.8-1.9c0-0.2,0.4,0.3,0.8,1.1
				c0.4,0.8,0.8,1.5,0.7,1.5c0,0-0.7,0.3-1.5,0.6c-0.8,0.3-1.6,0.6-1.7,0.6C204.9,151.9,204.7,151.9,204.7,151.7L204.7,151.7z"/>
			<path class="st15" d="M204.7,151.7c-0.1-0.1,0-0.3-0.6-1.6l0.9-0.2c0.9-0.2,1.8-1.2,1.8-1.9c0-0.2,0.4,0.3,0.8,1.1
				c0.4,0.8,0.8,1.5,0.7,1.5c0,0-0.7,0.3-1.5,0.6c-0.8,0.3-1.6,0.6-1.7,0.6C204.9,151.9,204.7,151.9,204.7,151.7L204.7,151.7z"/>
		</g>
		<g transform="matrix(1,0,0,1,0,0)">
			<path class="st16" d="M212.5,173.6c0-0.8,0.1-0.9,0.7-1.1c0.4-0.1,0.9-0.3,1.1-0.3c0.2,0,0.6-0.1,0.8-0.2c0.2-0.1,0.6-0.2,1.6,1
				c-0.1,0.1-3.9,1.5-4.1,1.5C212.6,174.5,212.5,174.1,212.5,173.6L212.5,173.6z"/>
			<path class="st17" d="M212.5,173.6c0-0.8,0.1-0.9,0.7-1.1c0.4-0.1,0.9-0.3,1.1-0.3c0.2,0,0.6-0.1,0.8-0.2c0.2-0.1,0.6-0.2,1.6,1
				c-0.1,0.1-3.9,1.5-4.1,1.5C212.6,174.5,212.5,174.1,212.5,173.6L212.5,173.6z"/>
		</g>
		<g transform="matrix(1,0,0,1,0,0)">
			<path class="st18" d="M215.1,200c0.2-0.6-0.4-0.8-1.1-0.4c-0.7,0.4-0.8,0.1-0.3-0.4c0.4-0.4,1.5-2.6,1.5-3c0-0.4,0.5-0.4,1,0
				c0.4,0.3,0.4,0.4-0.1,2.2c-0.3,1-0.7,1.9-0.8,2C215,200.3,215,200.2,215.1,200L215.1,200z"/>
			<path class="st19" d="M215.1,200c0.2-0.6-0.4-0.8-1.1-0.4c-0.7,0.4-0.8,0.1-0.3-0.4c0.4-0.4,1.5-2.6,1.5-3c0-0.4,0.5-0.4,1,0
				c0.4,0.3,0.4,0.4-0.1,2.2c-0.3,1-0.7,1.9-0.8,2C215,200.3,215,200.2,215.1,200L215.1,200z"/>
		</g>
		<g transform="matrix(1,0,0,1,0,0)">
			<path class="st18" d="M55.2,84.2c0.2-0.2,0.3-0.2,1-0.3c0.2,0,0.5-0.2,0.5-0.5C56.8,83,57,83,58.6,83c1,0,2.9,0.2,4.4,0.3
				c2.8,0.3,2.8,0.3-1.8,0.5c-1.7,0.1-4.3,0.3-5.4,0.5C55.3,84.3,55.1,84.3,55.2,84.2L55.2,84.2z"/>
			<path class="st19" d="M55.2,84.2c0.2-0.2,0.3-0.2,1-0.3c0.2,0,0.5-0.2,0.5-0.5C56.8,83,57,83,58.6,83c1,0,2.9,0.2,4.4,0.3
				c2.8,0.3,2.8,0.3-1.8,0.5c-1.7,0.1-4.3,0.3-5.4,0.5C55.3,84.3,55.1,84.3,55.2,84.2L55.2,84.2z"/>
		</g>
		<g transform="matrix(1,0,0,1,0,0)">
			<path class="st20" d="M196.1,114.7c-0.1-0.1,0.1-0.6,0.4-1.3c0.3-0.6,0.7-1.5,0.8-2.1c0.3-1.1,0.9-1.3,1.3-0.5
				c0.3,0.5,0,1.8-0.4,1.7c-0.3-0.1-1,0.3-1,0.5C197.3,113.4,196.2,114.9,196.1,114.7L196.1,114.7z"/>
			<path class="st21" d="M196.1,114.7c-0.1-0.1,0.1-0.6,0.4-1.3c0.3-0.6,0.7-1.5,0.8-2.1c0.3-1.1,0.9-1.3,1.3-0.5
				c0.3,0.5,0,1.8-0.4,1.7c-0.3-0.1-1,0.3-1,0.5C197.3,113.4,196.2,114.9,196.1,114.7L196.1,114.7z"/>
		</g>
		<g transform="matrix(1,0,0,1,0,0)">
			<path class="st22" d="M52.4,83.6l0.1-0.7l2.8,0c1.6,0,2.5,0,2.2,0.1c-0.4,0.1-0.7,0.3-0.8,0.5c-0.1,0.2-0.3,0.4-0.5,0.5
				c-0.7,0-0.8,0.1-1,0.3c-0.1,0.1-0.8,0.2-1.5,0.2h-1.3L52.4,83.6L52.4,83.6z"/>
			<path class="st23" d="M52.4,83.6l0.1-0.7l2.8,0c1.6,0,2.5,0,2.2,0.1c-0.4,0.1-0.7,0.3-0.8,0.5c-0.1,0.2-0.3,0.4-0.5,0.5
				c-0.7,0-0.8,0.1-1,0.3c-0.1,0.1-0.8,0.2-1.5,0.2h-1.3L52.4,83.6L52.4,83.6z"/>
		</g>
		<g transform="matrix(1,0,0,1,0,0)">
			<path class="st22" d="M194.9,120.5c-0.2-0.2,0.9-2.9,1.3-3.3c0.2-0.2,0.4-0.2,0.6-0.1c0.2,0.1,0.2,0.4-0.2,1.4
				C195.8,120.5,195.3,121.1,194.9,120.5L194.9,120.5z"/>
			<path class="st23" d="M194.9,120.5c-0.2-0.2,0.9-2.9,1.3-3.3c0.2-0.2,0.4-0.2,0.6-0.1c0.2,0.1,0.2,0.4-0.2,1.4
				C195.8,120.5,195.3,121.1,194.9,120.5L194.9,120.5z"/>
		</g>
		<g transform="matrix(1,0,0,1,0,0)">
			<path class="st22" d="M212.3,205.9c0-0.7,0.7-1.9,2-2.7c0,0.6-1.1,2.7-1.5,2.9C212.3,206.4,212.2,206.3,212.3,205.9L212.3,205.9z
				"/>
			<path class="st23" d="M212.3,205.9c0-0.7,0.7-1.9,2-2.7c0,0.6-1.1,2.7-1.5,2.9C212.3,206.4,212.2,206.3,212.3,205.9L212.3,205.9z
				"/>
		</g>
		<g transform="matrix(1,0,0,1,0,0)">
			<path class="st16" d="M198.5,110.7c-0.1-0.2-0.3-0.3-0.6-0.3c-0.3,0.1-0.4,0-0.4-0.4c0-0.8,0.6-2.1,1.5-2.4
				c0.3,0.2,0.3,0.6,0.2,1.7C199,110.7,198.8,111.3,198.5,110.7L198.5,110.7z"/>
			<path class="st17" d="M198.5,110.7c-0.1-0.2-0.3-0.3-0.6-0.3c-0.3,0.1-0.4,0-0.4-0.4c0-0.8,0.6-2.1,1.5-2.4
				c0.3,0.2,0.3,0.6,0.2,1.7C199,110.7,198.8,111.3,198.5,110.7L198.5,110.7z"/>
		</g>
		<g transform="matrix(1,0,0,1,0,0)">
			<path class="st24" d="M183.7,246.6c0-0.3-0.2-0.8-0.4-1.5c0.3,0,0.9-0.1,1.4-0.1c0.5-0.1,0.8-0.1,0.8,0.1c0,0.1-0.4,0.7-0.9,1.2
				C183.8,247.2,183.7,247.2,183.7,246.6L183.7,246.6z"/>
			<path class="st25" d="M183.7,246.6c0-0.3-0.2-0.8-0.4-1.5c0.3,0,0.9-0.1,1.4-0.1c0.5-0.1,0.8-0.1,0.8,0.1c0,0.1-0.4,0.7-0.9,1.2
				C183.8,247.2,183.7,247.2,183.7,246.6L183.7,246.6z"/>
		</g>
		<g transform="matrix(1,0,0,1,0,0)">
			<path class="st26" d="M195.2,95.5c-0.1-0.5-0.2-1.2-0.3-1.5c-0.1-0.3-0.2-1-0.3-1.4c-0.1-0.5-0.2-0.9-0.1-1
				c0.3-0.3,1.1,3.1,1,4.2C195.4,96.3,195.3,96.3,195.2,95.5L195.2,95.5z"/>
			<path class="st27" d="M195.2,95.5c-0.1-0.5-0.2-1.2-0.3-1.5c-0.1-0.3-0.2-1-0.3-1.4c-0.1-0.5-0.2-0.9-0.1-1
				c0.3-0.3,1.1,3.1,1,4.2C195.4,96.3,195.3,96.3,195.2,95.5L195.2,95.5z"/>
		</g>
		<g transform="matrix(1,0,0,1,0,0)">
			<path class="st22" d="M197,115.2c-0.7-0.4-0.7-0.5-0.2-1.2c0.2-0.3,0.4-0.7,0.4-0.8c0-0.2,0.5-0.5,1.1-0.7c0.3-0.1,0.3,0.1-0.2,2
				C197.9,115.5,197.8,115.6,197,115.2L197,115.2z"/>
			<path class="st23" d="M197,115.2c-0.7-0.4-0.7-0.5-0.2-1.2c0.2-0.3,0.4-0.7,0.4-0.8c0-0.2,0.5-0.5,1.1-0.7c0.3-0.1,0.3,0.1-0.2,2
				C197.9,115.5,197.8,115.6,197,115.2L197,115.2z"/>
		</g>
		<g transform="matrix(1,0,0,1,0,0)">
			<path class="st22" d="M134.3,108.1c0.1-0.1,0-0.3-0.1-0.4c-0.1-0.1-0.2-0.4-0.2-0.8c0-0.5,0.1-0.7,0.7-0.8
				c0.8-0.2,1.1,0.1,1.1,1.2c0,0.4-0.1,0.7-0.3,0.7c-0.2,0-0.5,0.1-0.8,0.1C134.3,108.3,134.2,108.3,134.3,108.1L134.3,108.1z"/>
			<path class="st23" d="M134.3,108.1c0.1-0.1,0-0.3-0.1-0.4c-0.1-0.1-0.2-0.4-0.2-0.8c0-0.5,0.1-0.7,0.7-0.8
				c0.8-0.2,1.1,0.1,1.1,1.2c0,0.4-0.1,0.7-0.3,0.7c-0.2,0-0.5,0.1-0.8,0.1C134.3,108.3,134.2,108.3,134.3,108.1L134.3,108.1z"/>
		</g>
		<g transform="matrix(1,0,0,1,0,0)">
			<path class="st28" d="M132,100c0-0.1,0.1-0.5,0.2-0.8c0.2-0.5,0.3-0.6,1-0.4c0.4,0.1,1,0.3,1.3,0.4c0.4,0.2,0.5,0.3,0.2,0.5
				C134.2,100,132,100.3,132,100L132,100z"/>
			<path class="st29" d="M132,100c0-0.1,0.1-0.5,0.2-0.8c0.2-0.5,0.3-0.6,1-0.4c0.4,0.1,1,0.3,1.3,0.4c0.4,0.2,0.5,0.3,0.2,0.5
				C134.2,100,132,100.3,132,100L132,100z"/>
		</g>
		<g transform="matrix(1,0,0,1,0,0)">
			<path class="st30" d="M187.9,124.9c-0.3-0.3-0.2-0.8,0.2-1.3c0.5-0.7,1.7-0.5,1.8,0.3c0,0.3,0,0.7-0.2,0.8
				C189.5,125,188.2,125.1,187.9,124.9L187.9,124.9z"/>
			<path class="st31" d="M187.9,124.9c-0.3-0.3-0.2-0.8,0.2-1.3c0.5-0.7,1.7-0.5,1.8,0.3c0,0.3,0,0.7-0.2,0.8
				C189.5,125,188.2,125.1,187.9,124.9L187.9,124.9z"/>
		</g>
		<g transform="matrix(1,0,0,1,0,0)">
			<path class="st22" d="M212.9,116.9c-0.6-0.5-0.7-0.7-0.5-0.9c0.6-0.6,2,0.5,1.7,1.3C213.9,117.7,213.8,117.7,212.9,116.9
				L212.9,116.9z"/>
			<path class="st23" d="M212.9,116.9c-0.6-0.5-0.7-0.7-0.5-0.9c0.6-0.6,2,0.5,1.7,1.3C213.9,117.7,213.8,117.7,212.9,116.9
				L212.9,116.9z"/>
		</g>
		<g transform="matrix(1,0,0,1,0,0)">
			<path class="st22" d="M123.9,97c-0.7-0.1-0.7-0.2-0.3-0.2c0.3,0,0.7-0.2,0.7-0.4c0.2-0.4,0.5-0.4,2,0c1.2,0.4,1.2,0.4,0.5,0.5
				C126,97.2,125.1,97.2,123.9,97L123.9,97z"/>
			<path class="st23" d="M123.9,97c-0.7-0.1-0.7-0.2-0.3-0.2c0.3,0,0.7-0.2,0.7-0.4c0.2-0.4,0.5-0.4,2,0c1.2,0.4,1.2,0.4,0.5,0.5
				C126,97.2,125.1,97.2,123.9,97L123.9,97z"/>
		</g>
		<g transform="matrix(1,0,0,1,0,0)">
			<path class="st22" d="M130.9,117.1c-0.5-0.5-0.3-0.8,0.6-1.1c1.2-0.4,1.4-0.1,0.6,0.7C131.3,117.4,131.3,117.4,130.9,117.1
				L130.9,117.1z"/>
			<path class="st23" d="M130.9,117.1c-0.5-0.5-0.3-0.8,0.6-1.1c1.2-0.4,1.4-0.1,0.6,0.7C131.3,117.4,131.3,117.4,130.9,117.1
				L130.9,117.1z"/>
		</g>
		<g transform="matrix(1,0,0,1,0,0)">
			<path class="st26" d="M195.6,100.8c0-2.1,0-2.9,0.1-1.9c0,1,0,2.7,0,3.7C195.6,103.7,195.6,102.9,195.6,100.8L195.6,100.8z"/>
			<path class="st27" d="M195.6,100.8c0-2.1,0-2.9,0.1-1.9c0,1,0,2.7,0,3.7C195.6,103.7,195.6,102.9,195.6,100.8L195.6,100.8z"/>
		</g>
	</g>
</g>
<text transform="matrix(1 0 0 1 389.6314 116.6495)"><tspan x="0" y="0" class="st32 st33">Madu </tspan><tspan x="0" y="131.6" class="st32 st33">Kelulut</tspan></text>
</svg>
