<?xml version="1.0" encoding="utf-8"?>
<!-- Generator: Adobe Illustrator 27.6.1, SVG Export Plug-In . SVG Version: 6.00 Build 0)  -->
<svg version="1.1" id="Layer_1" xmlns="http://www.w3.org/2000/svg" xmlns:xlink="http://www.w3.org/1999/xlink" x="0px" y="0px"
	 viewBox="0 0 715 548" style="enable-background:new 0 0 715 548;" xml:space="preserve">
<style type="text/css">
	.st0{clip-path:url(#SVGID_00000022551487129329128480000010103825715383265934_);}
	.st1{fill:#090F18;}
	.st2{fill-opacity:0;stroke:#090F18;stroke-linecap:round;stroke-linejoin:round;}
	.st3{fill:#FFB807;}
	.st4{fill-opacity:0;stroke:#FFB807;stroke-linecap:round;stroke-linejoin:round;}
	.st5{fill:#FFECAB;}
	.st6{fill-opacity:0;stroke:#FFECAB;stroke-linecap:round;stroke-linejoin:round;}
	.st7{fill:#FFC013;}
	.st8{fill-opacity:0;stroke:#FFC013;stroke-linecap:round;stroke-linejoin:round;}
	.st9{fill:#FFEA9F;}
	.st10{fill-opacity:0;stroke:#FFEA9F;stroke-linecap:round;stroke-linejoin:round;}
	.st11{fill:#FFDE36;}
	.st12{fill-opacity:0;stroke:#FFDE36;stroke-linecap:round;stroke-linejoin:round;}
	.st13{fill:#FFE26C;}
	.st14{fill-opacity:0;stroke:#FFE26C;stroke-linecap:round;stroke-linejoin:round;}
	.st15{fill:#FFF452;}
	.st16{fill-opacity:0;stroke:#FFF452;stroke-linecap:round;stroke-linejoin:round;}
	.st17{fill:#FFF088;}
	.st18{fill-opacity:0;stroke:#FFF088;stroke-linecap:round;stroke-linejoin:round;}
	.st19{fill:#FFD75B;}
	.st20{fill-opacity:0;stroke:#FFD75B;stroke-linecap:round;stroke-linejoin:round;}
	.st21{fill:#FFDB71;}
	.st22{fill-opacity:0;stroke:#FFDB71;stroke-linecap:round;stroke-linejoin:round;}
	.st23{fill:#FFCE1B;}
	.st24{fill-opacity:0;stroke:#FFCE1B;stroke-linecap:round;stroke-linejoin:round;}
	.st25{fill:#FFDE23;}
	.st26{fill-opacity:0;stroke:#FFDE23;stroke-linecap:round;stroke-linejoin:round;}
	.st27{fill:#FFDF8E;}
	.st28{fill-opacity:0;stroke:#FFDF8E;stroke-linecap:round;stroke-linejoin:round;}
	.st29{fill:#FFE043;}
	.st30{fill-opacity:0;stroke:#FFE043;stroke-linecap:round;stroke-linejoin:round;}
	.st31{fill:#FFD185;}
	.st32{fill-opacity:0;stroke:#FFD185;stroke-linecap:round;stroke-linejoin:round;}
</style>
<g>
	<defs>
		<rect id="SVGID_1_" width="715" height="548"/>
	</defs>
	<clipPath id="SVGID_00000098211548284082624590000000977157362807692708_">
		<use xlink:href="#SVGID_1_"  style="overflow:visible;"/>
	</clipPath>
	<g style="clip-path:url(#SVGID_00000098211548284082624590000000977157362807692708_);">
		<g transform="matrix(1,0,0,1,0,0)">
			<g transform="matrix(1,0,0,1,0,0)">
				<path class="st1" d="M355.7,546.1c-0.3-0.2-1.3-0.9-2.2-1.4c-1-0.5-3.4-2.1-5.4-3.4s-4.1-2.7-4.7-3.1c-0.5-0.3-1.6-1.2-2.3-1.9
					s-1.6-1.3-1.8-1.3c-0.4,0-3.8-2.9-8.8-7.4c-1.6-1.4-3.1-2.6-3.3-2.6c-0.7,0-22-21.7-25.7-26.2c-1.8-2.2-4.6-5.5-6.2-7.4
					c-1.6-1.9-3.8-4.4-4.8-5.7c-3.3-4.3-5.5-7-7-8.8c-0.8-1-1.5-2-1.5-2.3s-0.4-0.8-0.8-1.2c-1-0.9-12.9-18.7-15.2-22.7
					c-0.9-1.6-2.2-3.8-2.8-4.9c-0.6-1-1.2-2-1.2-2.1c0-0.1-1.5-2.8-3.4-5.9c-4.2-7.1-7.3-13.3-10.6-21.6c-3.9-9.8-5-12.9-5-14.3
					c0-0.7-0.4-2.1-0.9-3c-0.5-0.9-1-2.8-1.3-4.2s-0.6-3.6-0.9-5s-0.6-3.6-0.8-5c-0.1-1.4-0.5-2.7-0.7-3c-0.6-0.7-0.6-32.1,0-32.5
					c0.3-0.2,0.5-1.1,0.5-2s0.2-2.7,0.5-3.8c0.3-1.2,0.7-3.5,1-5.1c1.3-6.8,4.1-17.5,5.7-21.7c1-2.5,1.7-4.8,1.7-5.3s0.9-2.7,2-5
					s2-4.4,2-4.6c0-0.9,7.3-15.1,10.4-20.2c8.3-13.8,15.2-22.9,24.7-32.8l5.9-6l-3.9-7.7c-2.1-4.2-4.1-7.8-4.4-7.9
					c-0.3-0.1-4.3,2.6-8.8,6c-15.2,11.4-30.9,22-44.6,30.2c-7.1,4.2-28.7,15.4-32.7,16.9c-1,0.4-3.5,1.4-5.6,2.2
					c-13.9,5.8-25.9,9.1-40.5,10.9c-5.4,0.7-7.2,0.7-12.2,0c-18.5-2.5-24-4.2-40.2-12.4c-9.4-4.7-10.2-5.1-11.4-6.3
					c-0.5-0.5-1.1-0.8-1.3-0.8c-0.2,0-1.4-0.7-2.6-1.5s-2.4-1.5-2.6-1.5c-1.3-1.2-6.6-4.4-7.3-5.1c-0.5-0.6-3-2.6-5.5-4.5
					c-13.3-10-31.3-27.1-40.2-38.3c-1.6-2-3.6-4.4-4.4-5.2c-2.1-2.3-9.8-14.6-12.8-20.6c-2.5-5-5.2-11.5-6.1-14.8
					c-0.3-1-1-3.2-1.5-5.1s-1-4.2-1-5.3c0-1.1-0.2-2.2-0.5-2.3c-0.7-0.4-0.7-5.1,0-5.5c0.3-0.2,0.5-1.5,0.5-3c0-4.5,4-13.7,7.5-17
					c1.1-1.1,2.3-2.5,2.5-3.1c0.6-1.4,8.1-6.4,13.8-9c7.7-3.5,9.2-4.2,10.1-4.2c0.5,0,1.9-0.4,3.1-0.8s3.2-1,4.2-1.3s2.9-0.7,4-1
					c4.9-1.2,6.7-1.6,10-1.8c1.9-0.1,3.7-0.4,4-0.7c0.3-0.3,2.6-0.5,5.1-0.5c2.8,0,4.7-0.2,4.7-0.5c0-0.3,5.7-0.5,16-0.5
					s16,0.2,16,0.5c0,0.3,2.6,0.5,6.7,0.5c3.9,0,6.8,0.2,7,0.5c0.2,0.3,2,0.5,4,0.5s3.8,0.2,4,0.5s1.7,0.5,3.5,0.5
					c1.8,0,3.3,0.2,3.5,0.5s1.5,0.5,3,0.5s2.8,0.2,3,0.5s1.7,0.5,3.5,0.5s3.3,0.2,3.5,0.5s2,0.5,4,0.5s3.8,0.2,4,0.5
					s1.3,0.5,2.5,0.5s2.3,0.2,2.5,0.5s1.5,0.5,2.9,0.5s2.8,0.2,3.1,0.4c0.3,0.2,1.4,0.6,2.5,0.7s3.2,0.5,4.8,0.8s3.6,0.7,4.6,0.8
					c1,0.2,2,0.5,2.2,0.7c0.2,0.2,1.2,0.4,2.3,0.4c1.9,0,4,0.5,6.6,1.5c1,0.4,2.2,0.7,6.2,1.5c1.2,0.2,2.9,0.6,3.8,0.8
					c2.1,0.5,8.3,2.2,9.6,2.8c0.6,0.2,1.8,0.5,2.5,0.5c0.7,0,2.5,0.4,3.9,0.8c1.4,0.4,6.3,1.8,11,3c4.7,1.2,10.1,2.7,12,3.2
					c9.1,2.6,10.8,3.1,15.2,4.3c2.6,0.7,5.4,1.5,6.2,1.7c1.4,0.4,7.7,2.4,15.5,5c1.6,0.6,4,1,5.1,1c1.8,0,2.1-0.2,2.1-1
					c0-0.9,0.4-3.1,1.5-7.5c0.2-1,0.8-3.2,1.2-5c0.8-3.4,2.9-9.8,4.7-14.5c3.9-9.7,9.8-18.8,16.9-25.8c2.1-2.1,3.7-4,3.7-4.6
					c0-1-0.7-2.8-2.8-7.5c-0.7-1.5-1.2-2.7-1.2-2.8c0-0.6-4.6-9.8-5.7-11.4c-0.7-1-1.3-2-1.3-2.2c0-0.2-1.1-2-2.5-4
					s-2.5-3.9-4.5-6.8c0-0.5-1.1-2-3.6-5.1c-0.8-0.9-1.4-1.8-1.4-2c0-0.7-3.4-4.6-13-14.3c-8.7-8.9-11.3-11.3-14.6-13.2
					c-0.5-0.3-1.6-1.2-2.3-1.9c-0.8-0.7-1.6-1.3-1.9-1.3s-1.5-1-2.7-2.3s-3.1-2.7-4.3-3.2c-1.1-0.5-2.3-1.3-2.7-1.7
					c-0.4-0.4-0.9-0.8-1.2-0.8c-1,0-4.3-3.7-4.3-4.9c0-0.6-0.2-1.2-0.5-1.4c-0.9-0.5-0.6-3.7,0.6-5.9c1.4-2.8,4.4-5.9,5.8-5.9
					c0.6,0,1.3-0.2,1.4-0.5c0.9-1.5,7.3,0.6,9.7,3.2c0.7,0.7,1.4,1.3,1.7,1.3c0.3,0,1.7,1.1,3.1,2.4c1.5,1.3,3.8,3.3,5.2,4.4
					c7.4,5.8,31,28.3,31,29.5c0,0.3,0.4,0.9,0.8,1.3c0.5,0.4,1.4,1.5,2,2.4s2,2.8,2.9,4c6.9,8.9,16.2,25.2,20.9,36.5
					c1.3,3.2,3.9,4.4,6,2.8c0.9-0.7,3.7-1.6,8.6-2.8c1.1-0.3,2.4-0.7,2.9-1c0.5-0.2,1.9-0.5,3.1-0.5c1.2,0,2.4-0.2,2.5-0.5
					c0.4-0.7,23.2-0.7,23.2,0c0,0.3,1.1,0.5,2.4,0.5c1.6,0,3.3,0.5,5.4,1.5c1.6,0.8,3.2,1.5,3.5,1.5c0.3,0,1.3,0.4,2.2,0.8
					c0.9,0.5,2.8,0.9,4.1,1.1l2.4,0.2l1.3-2.9c9.4-21.7,23.8-42.2,43.3-61.6c7.4-7.4,11.5-11,23-20.6c3.5-2.9,9.9-5.7,10.3-4.5
					c0.1,0.3,0.7,0.6,1.3,0.6c0.6,0,1.5,0.5,4.6,2.9c0.2,0.5,0.7,1.4,1.2,2.1c0.7,0.9,0.9,2.1,0.9,4.6c0,5-1.7,7.5-7,10.2
					c-1.8,0.9-4,2.5-5,3.5c-0.9,1-2,1.8-2.3,1.8s-1.4,0.9-2.5,2s-2.2,2-2.4,2c-1.1,0-17.8,15.7-17.8,16.8c0,0.3-0.7,1.2-1.5,2
					s-1.5,1.7-1.5,2c0,0.3-1.1,1.7-2.5,3s-2.5,2.7-2.5,3s-0.8,1.3-1.8,2.3c-1,0.9-2.2,2.6-2.7,3.7s-1.5,2.5-2.2,3.2
					s-1.3,1.5-1.3,1.8s-0.3,0.9-0.8,1.2c-0.4,0.4-1.2,1.6-1.8,2.8c-0.5,1.2-1.2,2.3-1.5,2.4c-0.3,0.2-0.9,1.1-1.3,2.2
					c-0.5,1-1.2,2.2-1.6,2.7c-0.9,1.1-8.1,15.5-8.1,16.2c0,0.3-0.5,1.5-1.1,2.6c-1,1.8-1,2.2-0.4,3.5c0.4,0.9,1,1.6,1.3,1.6
					c0.4,0,0.8,0.5,1.1,1.1c0.2,0.6,1.7,2.4,3.2,3.9c1.5,1.5,2.8,2.9,2.8,3.2s0.6,1.2,1.4,2.1c3.5,4.3,4.1,5.2,6,8.7
					c1.1,2.1,2.2,4.2,2.6,4.8c1.3,2.2,3,6.8,5,13.2c1.2,3.7,2.3,7.4,2.6,8.3c0.3,0.8,0.5,2.7,0.5,4.1c0,3.3,1,6.6,2,6.6
					c0.4,0,3.3-0.9,6.5-2c8.1-2.9,13.7-4.7,17.8-5.9c1.9-0.5,7.2-2.2,11.8-3.6s9.8-3,11.8-3.6c1.9-0.5,4.9-1.4,6.6-2
					c1.7-0.5,3.4-1,3.9-1c0.5,0,1.8-0.4,2.9-1c1.1-0.6,2.9-1,3.9-1c1,0,2-0.2,2.2-0.4c0.2-0.2,1-0.6,1.9-0.7
					c1.5-0.2,2.5-0.5,7.8-1.8c1-0.3,2.8-0.7,4-1s3.1-0.8,4.2-1.1c1.2-0.3,3.1-0.7,4.4-1c2.1-0.4,4.3-0.9,8.8-2.1
					c1.1-0.3,3-0.7,4.2-0.9s3.3-0.7,4.5-1s3.3-0.7,4.5-0.8s2.5-0.5,2.7-0.7c0.3-0.2,1.4-0.5,2.5-0.5c1.8,0,4.1-0.5,6.6-1.5
					c0.5-0.2,2.2-0.5,3.8-0.7c6.7-0.6,8.3-0.9,9.2-1.3c0.5-0.2,2.6-0.6,4.5-0.8s5.1-0.5,7-0.8c1.9-0.2,5.4-0.6,7.8-0.8
					c2.3-0.2,4.5-0.5,4.7-0.8c0.3-0.2,3-0.4,6.1-0.4c3.4,0,5.7-0.2,5.7-0.5c0-0.7,38.3-0.7,38.8,0c0.2,0.3,1.7,0.5,3.5,0.5
					s3.3,0.2,3.5,0.5s1.7,0.5,3.5,0.5s3.7,0.2,4.3,0.4c0.6,0.2,2.4,0.7,3.9,1c10.6,2.3,22.8,6.7,27.7,10.1c1.2,0.8,2.3,1.5,2.4,1.5
					c0.9,0,5.1,3.4,8.4,6.8c6.4,6.5,8,10,9.8,20.8c0.5,2.7-0.6,8.7-2.9,16.6c-1.1,3.6-6.6,15.4-8.5,18.3c-0.6,0.9-1.5,2.5-2,3.5
					c-0.5,1-1.2,2.1-1.6,2.4c-0.7,1.2-4.3,6.6-4.8,7.2c0,0.3-0.7,1.2-1.5,2s-1.5,1.7-1.5,2s-0.7,1.2-1.5,2s-1.5,1.7-1.5,2
					c0,0.3-0.9,1.4-2,2.5s-2,2.2-2,2.5c0,0.7-23.6,24.3-24.3,24.3c-0.3,0-1.6,1.1-3,2.5s-2.7,2.5-3,2.5s-1.2,0.7-2,1.5
					s-1.7,1.5-1.9,1.5s-1.2,0.7-2,1.5c-2.6,2.4-20.2,14.4-25.3,17.1c-26.3,14.1-43.5,18.3-64.5,15.7c-10-1.3-13.6-1.8-14.9-2.3
					c-0.7-0.3-3.9-1.3-7.1-2.2c-5.3-1.5-14.7-4.9-18.2-6.5c-0.8-0.4-3.3-1.4-5.5-2.3c-4.3-1.7-17-7.8-18.2-8.8
					c-0.4-0.3-2.5-1.5-4.8-2.7c-2.2-1.2-5.2-2.8-6.6-3.7c-1.4-0.9-3.9-2.4-5.5-3.3c-1.6-0.9-4.2-2.6-5.8-3.6c-1.6-1.1-3-1.9-3.1-1.9
					c-0.7,0-17.1-11.5-27.9-19.6c-4.3-3.2-8.3-6.1-8.8-6.4c-0.8-0.4-1.4,0.4-4.8,7.1c-2.1,4.2-3.8,7.8-3.8,8.1c0,0.3,0.5,1,1.1,1.5
					c0.6,0.5,4.2,4.4,8,8.7c8.5,9.4,13.5,15.9,21.3,27.5c1,1.5,3.3,4.3,5.1,6.2s3.6,4.2,4,5.1c0.4,0.9,1.1,1.7,1.6,1.8
					c0.8,0.2,0.9,0.8,0.9,4.2c0,4.3,0.4,5.8,5.1,18c2.7,7,3.6,10.3,5.8,20.4c0.6,2.8,1.3,5.9,1.6,7c0.7,3.1,1.2,13.4,1.2,26
					c0,13.6-0.7,19.7-2.9,25.8c-0.4,1.2-0.8,2.9-0.8,3.6s-0.4,2.3-0.9,3.5c-1.7,3.9-2.1,4.9-2.1,5.9c0,0.5-0.7,2.4-1.5,4.2
					s-1.5,3.4-1.5,3.5c0,0.1-0.9,2.1-2,4.5s-2,4.4-2,4.6c0,0.5-3.2,7-4.4,9c-0.7,1.1-2.1,3.7-3.2,5.8s-2.2,4.1-2.6,4.5
					c-0.3,0.4-1,1.6-1.5,2.6c-0.5,1-1.2,2.1-3.1,5c-0.4,0.4-1.2,1.6-1.7,2.7s-1.3,2.4-1.7,2.7c-2.5,4-8.5,12.8-10.8,16.3
					c0,0.3-0.7,1.2-1.5,2s-1.5,1.7-1.5,2s-0.9,1.4-2,2.5s-2,2.2-2,2.5s-0.7,1.2-1.5,2s-1.5,1.7-1.5,2s-1.4,1.9-3,3.5s-3,3.2-3,3.5
					c0,0.3-1.6,2.1-3.5,4s-3.5,3.7-3.5,4s-1.1,1.6-2.5,3s-2.5,2.7-2.5,3c0,0.7-17.6,18.3-18.3,18.3c-0.3,0-1.6,1.1-3,2.5
					s-2.7,2.5-3,2.5c-0.3,0-1.9,1.3-3.5,3s-3.2,3-3.5,3s-1.2,0.7-2,1.5s-1.7,1.5-1.9,1.5c-0.3,0-1,0.5-1.7,1.1
					c-1.4,1.3-4.4,3.1-9.4,5.6C357.1,546.6,356.5,546.8,355.7,546.1L355.7,546.1z"/>
				<path class="st2" d="M355.7,546.1c-0.3-0.2-1.3-0.9-2.2-1.4c-1-0.5-3.4-2.1-5.4-3.4s-4.1-2.7-4.7-3.1c-0.5-0.3-1.6-1.2-2.3-1.9
					s-1.6-1.3-1.8-1.3c-0.4,0-3.8-2.9-8.8-7.4c-1.6-1.4-3.1-2.6-3.3-2.6c-0.7,0-22-21.7-25.7-26.2c-1.8-2.2-4.6-5.5-6.2-7.4
					c-1.6-1.9-3.8-4.4-4.8-5.7c-3.3-4.3-5.5-7-7-8.8c-0.8-1-1.5-2-1.5-2.3s-0.4-0.8-0.8-1.2c-1-0.9-12.9-18.7-15.2-22.7
					c-0.9-1.6-2.2-3.8-2.8-4.9c-0.6-1-1.2-2-1.2-2.1c0-0.1-1.5-2.8-3.4-5.9c-4.2-7.1-7.3-13.3-10.6-21.6c-3.9-9.8-5-12.9-5-14.3
					c0-0.7-0.4-2.1-0.9-3c-0.5-0.9-1-2.8-1.3-4.2s-0.6-3.6-0.9-5s-0.6-3.6-0.8-5c-0.1-1.4-0.5-2.7-0.7-3c-0.6-0.7-0.6-32.1,0-32.5
					c0.3-0.2,0.5-1.1,0.5-2s0.2-2.7,0.5-3.8c0.3-1.2,0.7-3.5,1-5.1c1.3-6.8,4.1-17.5,5.7-21.7c1-2.5,1.7-4.8,1.7-5.3s0.9-2.7,2-5
					s2-4.4,2-4.6c0-0.9,7.3-15.1,10.4-20.2c8.3-13.8,15.2-22.9,24.7-32.8l5.9-6l-3.9-7.7c-2.1-4.2-4.1-7.8-4.4-7.9
					c-0.3-0.1-4.3,2.6-8.8,6c-15.2,11.4-30.9,22-44.6,30.2c-7.1,4.2-28.7,15.4-32.7,16.9c-1,0.4-3.5,1.4-5.6,2.2
					c-13.9,5.8-25.9,9.1-40.5,10.9c-5.4,0.7-7.2,0.7-12.2,0c-18.5-2.5-24-4.2-40.2-12.4c-9.4-4.7-10.2-5.1-11.4-6.3
					c-0.5-0.5-1.1-0.8-1.3-0.8c-0.2,0-1.4-0.7-2.6-1.5s-2.4-1.5-2.6-1.5c-1.3-1.2-6.6-4.4-7.3-5.1c-0.5-0.6-3-2.6-5.5-4.5
					c-13.3-10-31.3-27.1-40.2-38.3c-1.6-2-3.6-4.4-4.4-5.2c-2.1-2.3-9.8-14.6-12.8-20.6c-2.5-5-5.2-11.5-6.1-14.8
					c-0.3-1-1-3.2-1.5-5.1s-1-4.2-1-5.3c0-1.1-0.2-2.2-0.5-2.3c-0.7-0.4-0.7-5.1,0-5.5c0.3-0.2,0.5-1.5,0.5-3c0-4.5,4-13.7,7.5-17
					c1.1-1.1,2.3-2.5,2.5-3.1c0.6-1.4,8.1-6.4,13.8-9c7.7-3.5,9.2-4.2,10.1-4.2c0.5,0,1.9-0.4,3.1-0.8s3.2-1,4.2-1.3s2.9-0.7,4-1
					c4.9-1.2,6.7-1.6,10-1.8c1.9-0.1,3.7-0.4,4-0.7c0.3-0.3,2.6-0.5,5.1-0.5c2.8,0,4.7-0.2,4.7-0.5c0-0.3,5.7-0.5,16-0.5
					s16,0.2,16,0.5c0,0.3,2.6,0.5,6.7,0.5c3.9,0,6.8,0.2,7,0.5c0.2,0.3,2,0.5,4,0.5s3.8,0.2,4,0.5s1.7,0.5,3.5,0.5
					c1.8,0,3.3,0.2,3.5,0.5s1.5,0.5,3,0.5s2.8,0.2,3,0.5s1.7,0.5,3.5,0.5s3.3,0.2,3.5,0.5s2,0.5,4,0.5s3.8,0.2,4,0.5
					s1.3,0.5,2.5,0.5s2.3,0.2,2.5,0.5s1.5,0.5,2.9,0.5s2.8,0.2,3.1,0.4c0.3,0.2,1.4,0.6,2.5,0.7s3.2,0.5,4.8,0.8s3.6,0.7,4.6,0.8
					c1,0.2,2,0.5,2.2,0.7c0.2,0.2,1.2,0.4,2.3,0.4c1.9,0,4,0.5,6.6,1.5c1,0.4,2.2,0.7,6.2,1.5c1.2,0.2,2.9,0.6,3.8,0.8
					c2.1,0.5,8.3,2.2,9.6,2.8c0.6,0.2,1.8,0.5,2.5,0.5c0.7,0,2.5,0.4,3.9,0.8c1.4,0.4,6.3,1.8,11,3c4.7,1.2,10.1,2.7,12,3.2
					c9.1,2.6,10.8,3.1,15.2,4.3c2.6,0.7,5.4,1.5,6.2,1.7c1.4,0.4,7.7,2.4,15.5,5c1.6,0.6,4,1,5.1,1c1.8,0,2.1-0.2,2.1-1
					c0-0.9,0.4-3.1,1.5-7.5c0.2-1,0.8-3.2,1.2-5c0.8-3.4,2.9-9.8,4.7-14.5c3.9-9.7,9.8-18.8,16.9-25.8c2.1-2.1,3.7-4,3.7-4.6
					c0-1-0.7-2.8-2.8-7.5c-0.7-1.5-1.2-2.7-1.2-2.8c0-0.6-4.6-9.8-5.7-11.4c-0.7-1-1.3-2-1.3-2.2c0-0.2-1.1-2-2.5-4
					s-2.5-3.9-4.5-6.8c0-0.5-1.1-2-3.6-5.1c-0.8-0.9-1.4-1.8-1.4-2c0-0.7-3.4-4.6-13-14.3c-8.7-8.9-11.3-11.3-14.6-13.2
					c-0.5-0.3-1.6-1.2-2.3-1.9c-0.8-0.7-1.6-1.3-1.9-1.3s-1.5-1-2.7-2.3s-3.1-2.7-4.3-3.2c-1.1-0.5-2.3-1.3-2.7-1.7
					c-0.4-0.4-0.9-0.8-1.2-0.8c-1,0-4.3-3.7-4.3-4.9c0-0.6-0.2-1.2-0.5-1.4c-0.9-0.5-0.6-3.7,0.6-5.9c1.4-2.8,4.4-5.9,5.8-5.9
					c0.6,0,1.3-0.2,1.4-0.5c0.9-1.5,7.3,0.6,9.7,3.2c0.7,0.7,1.4,1.3,1.7,1.3c0.3,0,1.7,1.1,3.1,2.4c1.5,1.3,3.8,3.3,5.2,4.4
					c7.4,5.8,31,28.3,31,29.5c0,0.3,0.4,0.9,0.8,1.3c0.5,0.4,1.4,1.5,2,2.4s2,2.8,2.9,4c6.9,8.9,16.2,25.2,20.9,36.5
					c1.3,3.2,3.9,4.4,6,2.8c0.9-0.7,3.7-1.6,8.6-2.8c1.1-0.3,2.4-0.7,2.9-1c0.5-0.2,1.9-0.5,3.1-0.5c1.2,0,2.4-0.2,2.5-0.5
					c0.4-0.7,23.2-0.7,23.2,0c0,0.3,1.1,0.5,2.4,0.5c1.6,0,3.3,0.5,5.4,1.5c1.6,0.8,3.2,1.5,3.5,1.5c0.3,0,1.3,0.4,2.2,0.8
					c0.9,0.5,2.8,0.9,4.1,1.1l2.4,0.2l1.3-2.9c9.4-21.7,23.8-42.2,43.3-61.6c7.4-7.4,11.5-11,23-20.6c3.5-2.9,9.9-5.7,10.3-4.5
					c0.1,0.3,0.7,0.6,1.3,0.6c0.6,0,1.5,0.5,4.6,2.9c0.2,0.5,0.7,1.4,1.2,2.1c0.7,0.9,0.9,2.1,0.9,4.6c0,5-1.7,7.5-7,10.2
					c-1.8,0.9-4,2.5-5,3.5c-0.9,1-2,1.8-2.3,1.8s-1.4,0.9-2.5,2s-2.2,2-2.4,2c-1.1,0-17.8,15.7-17.8,16.8c0,0.3-0.7,1.2-1.5,2
					s-1.5,1.7-1.5,2c0,0.3-1.1,1.7-2.5,3s-2.5,2.7-2.5,3s-0.8,1.3-1.8,2.3c-1,0.9-2.2,2.6-2.7,3.7s-1.5,2.5-2.2,3.2
					s-1.3,1.5-1.3,1.8s-0.3,0.9-0.8,1.2c-0.4,0.4-1.2,1.6-1.8,2.8c-0.5,1.2-1.2,2.3-1.5,2.4c-0.3,0.2-0.9,1.1-1.3,2.2
					c-0.5,1-1.2,2.2-1.6,2.7c-0.9,1.1-8.1,15.5-8.1,16.2c0,0.3-0.5,1.5-1.1,2.6c-1,1.8-1,2.2-0.4,3.5c0.4,0.9,1,1.6,1.3,1.6
					c0.4,0,0.8,0.5,1.1,1.1c0.2,0.6,1.7,2.4,3.2,3.9c1.5,1.5,2.8,2.9,2.8,3.2s0.6,1.2,1.4,2.1c3.5,4.3,4.1,5.2,6,8.7
					c1.1,2.1,2.2,4.2,2.6,4.8c1.3,2.2,3,6.8,5,13.2c1.2,3.7,2.3,7.4,2.6,8.3c0.3,0.8,0.5,2.7,0.5,4.1c0,3.3,1,6.6,2,6.6
					c0.4,0,3.3-0.9,6.5-2c8.1-2.9,13.7-4.7,17.8-5.9c1.9-0.5,7.2-2.2,11.8-3.6s9.8-3,11.8-3.6c1.9-0.5,4.9-1.4,6.6-2
					c1.7-0.5,3.4-1,3.9-1c0.5,0,1.8-0.4,2.9-1c1.1-0.6,2.9-1,3.9-1c1,0,2-0.2,2.2-0.4c0.2-0.2,1-0.6,1.9-0.7
					c1.5-0.2,2.5-0.5,7.8-1.8c1-0.3,2.8-0.7,4-1s3.1-0.8,4.2-1.1c1.2-0.3,3.1-0.7,4.4-1c2.1-0.4,4.3-0.9,8.8-2.1
					c1.1-0.3,3-0.7,4.2-0.9s3.3-0.7,4.5-1s3.3-0.7,4.5-0.8s2.5-0.5,2.7-0.7c0.3-0.2,1.4-0.5,2.5-0.5c1.8,0,4.1-0.5,6.6-1.5
					c0.5-0.2,2.2-0.5,3.8-0.7c6.7-0.6,8.3-0.9,9.2-1.3c0.5-0.2,2.6-0.6,4.5-0.8s5.1-0.5,7-0.8c1.9-0.2,5.4-0.6,7.8-0.8
					c2.3-0.2,4.5-0.5,4.7-0.8c0.3-0.2,3-0.4,6.1-0.4c3.4,0,5.7-0.2,5.7-0.5c0-0.7,38.3-0.7,38.8,0c0.2,0.3,1.7,0.5,3.5,0.5
					s3.3,0.2,3.5,0.5s1.7,0.5,3.5,0.5s3.7,0.2,4.3,0.4c0.6,0.2,2.4,0.7,3.9,1c10.6,2.3,22.8,6.7,27.7,10.1c1.2,0.8,2.3,1.5,2.4,1.5
					c0.9,0,5.1,3.4,8.4,6.8c6.4,6.5,8,10,9.8,20.8c0.5,2.7-0.6,8.7-2.9,16.6c-1.1,3.6-6.6,15.4-8.5,18.3c-0.6,0.9-1.5,2.5-2,3.5
					c-0.5,1-1.2,2.1-1.6,2.4c-0.7,1.2-4.3,6.6-4.8,7.2c0,0.3-0.7,1.2-1.5,2s-1.5,1.7-1.5,2s-0.7,1.2-1.5,2s-1.5,1.7-1.5,2
					c0,0.3-0.9,1.4-2,2.5s-2,2.2-2,2.5c0,0.7-23.6,24.3-24.3,24.3c-0.3,0-1.6,1.1-3,2.5s-2.7,2.5-3,2.5s-1.2,0.7-2,1.5
					s-1.7,1.5-1.9,1.5s-1.2,0.7-2,1.5c-2.6,2.4-20.2,14.4-25.3,17.1c-26.3,14.1-43.5,18.3-64.5,15.7c-10-1.3-13.6-1.8-14.9-2.3
					c-0.7-0.3-3.9-1.3-7.1-2.2c-5.3-1.5-14.7-4.9-18.2-6.5c-0.8-0.4-3.3-1.4-5.5-2.3c-4.3-1.7-17-7.8-18.2-8.8
					c-0.4-0.3-2.5-1.5-4.8-2.7c-2.2-1.2-5.2-2.8-6.6-3.7c-1.4-0.9-3.9-2.4-5.5-3.3c-1.6-0.9-4.2-2.6-5.8-3.6c-1.6-1.1-3-1.9-3.1-1.9
					c-0.7,0-17.1-11.5-27.9-19.6c-4.3-3.2-8.3-6.1-8.8-6.4c-0.8-0.4-1.4,0.4-4.8,7.1c-2.1,4.2-3.8,7.8-3.8,8.1c0,0.3,0.5,1,1.1,1.5
					c0.6,0.5,4.2,4.4,8,8.7c8.5,9.4,13.5,15.9,21.3,27.5c1,1.5,3.3,4.3,5.1,6.2s3.6,4.2,4,5.1c0.4,0.9,1.1,1.7,1.6,1.8
					c0.8,0.2,0.9,0.8,0.9,4.2c0,4.3,0.4,5.8,5.1,18c2.7,7,3.6,10.3,5.8,20.4c0.6,2.8,1.3,5.9,1.6,7c0.7,3.1,1.2,13.4,1.2,26
					c0,13.6-0.7,19.7-2.9,25.8c-0.4,1.2-0.8,2.9-0.8,3.6s-0.4,2.3-0.9,3.5c-1.7,3.9-2.1,4.9-2.1,5.9c0,0.5-0.7,2.4-1.5,4.2
					s-1.5,3.4-1.5,3.5c0,0.1-0.9,2.1-2,4.5s-2,4.4-2,4.6c0,0.5-3.2,7-4.4,9c-0.7,1.1-2.1,3.7-3.2,5.8s-2.2,4.1-2.6,4.5
					c-0.3,0.4-1,1.6-1.5,2.6c-0.5,1-1.2,2.1-3.1,5c-0.4,0.4-1.2,1.6-1.7,2.7s-1.3,2.4-1.7,2.7c-2.5,4-8.5,12.8-10.8,16.3
					c0,0.3-0.7,1.2-1.5,2s-1.5,1.7-1.5,2s-0.9,1.4-2,2.5s-2,2.2-2,2.5s-0.7,1.2-1.5,2s-1.5,1.7-1.5,2s-1.4,1.9-3,3.5s-3,3.2-3,3.5
					c0,0.3-1.6,2.1-3.5,4s-3.5,3.7-3.5,4s-1.1,1.6-2.5,3s-2.5,2.7-2.5,3c0,0.7-17.6,18.3-18.3,18.3c-0.3,0-1.6,1.1-3,2.5
					s-2.7,2.5-3,2.5c-0.3,0-1.9,1.3-3.5,3s-3.2,3-3.5,3s-1.2,0.7-2,1.5s-1.7,1.5-1.9,1.5c-0.3,0-1,0.5-1.7,1.1
					c-1.4,1.3-4.4,3.1-9.4,5.6C357.1,546.6,356.5,546.8,355.7,546.1L355.7,546.1z"/>
			</g>
			<g transform="matrix(1,0,0,1,0,0)">
				<path class="st3" d="M140.6,274.9c-20.5-2.2-39.2-11.7-67.4-34.2c-8.9-7.1-25.2-23.2-31.3-30.9c-15.7-19.7-23.2-38.4-19.7-48.7
					c1.1-3.1,4.7-7.3,8.2-9.6c7.1-4.5,21.6-8.7,35.3-10.1c6.1-0.6,31.5-1.1,28.8-0.6c-1.6,0.3-1.8,0.5-1.9,2.2
					c-0.1,1.5-0.3,1.9-1.2,1.9c-1.6,0-4.8,1.7-4.4,2.3c0.2,0.3,4.3,0.8,9.3,1.1c4.9,0.3,12.8,1.2,17.5,1.9c4.7,0.7,12.3,1.8,17,2.5
					c4.7,0.7,12.1,1.9,16.5,2.7c4.4,0.8,13.4,2.4,20,3.5s15.4,2.7,19.5,3.5c12.6,2.4,45.6,7.9,52.8,8.7c3.7,0.4,8.7,1,11,1.3
					c2.6,0.3,5,0.4,6.2,0.1c1.7-0.4,2.9-0.2,7.4,1.3c5,1.6,5.4,1.8,5,2.8c-0.2,0.6-0.4,1.5-0.4,2.1c0,1.4-5.6,2.2-82,11.4
					c-14.6,1.8-30.9,3.7-36.2,4.3c-5.3,0.6-15.5,1.8-22.5,2.8c-7,0.9-16.8,2.2-21.8,2.8s-9.6,1.4-10.3,1.8c-1.6,0.8-3.9,5.3-3.9,7.6
					c0,2.4,2.1,5.8,4.2,6.8c1.6,0.7,2.1,0.8,5.6,0.1c5.6-1.1,14.9-2.4,35.9-5c10.2-1.3,23-2.9,28.5-3.6c37.1-4.8,40.5-5.2,53-7
					c3-0.4,11-1.6,17.8-2.5c15-2.1,24.4-3.5,30-4.5c5.9-1,6-1,6,0.7c0,0.8,0.2,1.6,0.5,1.9c0.9,0.9-0.3,1.6-8.2,4.1
					c-7.8,2.5-20.1,6.8-34.8,12.1c-4,1.4-11,3.9-15.5,5.5c-20.6,7.2-27.9,10.3-30.2,12.4c-3.7,3.5-3.7,9.1,0,12
					c2.6,2,3.9,1.9,10.7-1.2c10.1-4.6,32.8-13.3,42-16.2c5.2-1.6,14.7-5.1,15.3-5.6c0.3-0.3,3.2-1.3,6.5-2.4l5.9-1.9l0.7,1.3
					c0.7,1.3,0.6,1.4-2,3.7c-3.5,3.2-23.6,16.9-34,23.2c-4.6,2.8-8.5,5.1-8.6,5.1s-2.2,1.1-4.6,2.6c-16.2,9.4-35.9,17.7-50.6,21.4
					C157.8,274.6,147,275.6,140.6,274.9L140.6,274.9z"/>
				<path class="st4" d="M140.6,274.9c-20.5-2.2-39.2-11.7-67.4-34.2c-8.9-7.1-25.2-23.2-31.3-30.9c-15.7-19.7-23.2-38.4-19.7-48.7
					c1.1-3.1,4.7-7.3,8.2-9.6c7.1-4.5,21.6-8.7,35.3-10.1c6.1-0.6,31.5-1.1,28.8-0.6c-1.6,0.3-1.8,0.5-1.9,2.2
					c-0.1,1.5-0.3,1.9-1.2,1.9c-1.6,0-4.8,1.7-4.4,2.3c0.2,0.3,4.3,0.8,9.3,1.1c4.9,0.3,12.8,1.2,17.5,1.9c4.7,0.7,12.3,1.8,17,2.5
					c4.7,0.7,12.1,1.9,16.5,2.7c4.4,0.8,13.4,2.4,20,3.5s15.4,2.7,19.5,3.5c12.6,2.4,45.6,7.9,52.8,8.7c3.7,0.4,8.7,1,11,1.3
					c2.6,0.3,5,0.4,6.2,0.1c1.7-0.4,2.9-0.2,7.4,1.3c5,1.6,5.4,1.8,5,2.8c-0.2,0.6-0.4,1.5-0.4,2.1c0,1.4-5.6,2.2-82,11.4
					c-14.6,1.8-30.9,3.7-36.2,4.3c-5.3,0.6-15.5,1.8-22.5,2.8c-7,0.9-16.8,2.2-21.8,2.8s-9.6,1.4-10.3,1.8c-1.6,0.8-3.9,5.3-3.9,7.6
					c0,2.4,2.1,5.8,4.2,6.8c1.6,0.7,2.1,0.8,5.6,0.1c5.6-1.1,14.9-2.4,35.9-5c10.2-1.3,23-2.9,28.5-3.6c37.1-4.8,40.5-5.2,53-7
					c3-0.4,11-1.6,17.8-2.5c15-2.1,24.4-3.5,30-4.5c5.9-1,6-1,6,0.7c0,0.8,0.2,1.6,0.5,1.9c0.9,0.9-0.3,1.6-8.2,4.1
					c-7.8,2.5-20.1,6.8-34.8,12.1c-4,1.4-11,3.9-15.5,5.5c-20.6,7.2-27.9,10.3-30.2,12.4c-3.7,3.5-3.7,9.1,0,12
					c2.6,2,3.9,1.9,10.7-1.2c10.1-4.6,32.8-13.3,42-16.2c5.2-1.6,14.7-5.1,15.3-5.6c0.3-0.3,3.2-1.3,6.5-2.4l5.9-1.9l0.7,1.3
					c0.7,1.3,0.6,1.4-2,3.7c-3.5,3.2-23.6,16.9-34,23.2c-4.6,2.8-8.5,5.1-8.6,5.1s-2.2,1.1-4.6,2.6c-16.2,9.4-35.9,17.7-50.6,21.4
					C157.8,274.6,147,275.6,140.6,274.9L140.6,274.9z"/>
			</g>
			<g transform="matrix(1,0,0,1,0,0)">
				<path class="st3" d="M563.8,271.7c-9.9-1-22.6-3.7-31.9-6.9c-19.3-6.5-46.9-21.5-71.4-39c-3.7-2.6-7.6-5.4-8.7-6.1
					c-1.5-1.1-1.9-1.6-0.5-4.7c27.8,8.8,60.9,20.7,69.9,25.2c3.1,1.6,4.7,2,7.2,2.2c3.4,0.2,4.8-0.4,4.1-1.7
					c-0.3-0.5-0.2-1.3,0.3-2.1c1-2,0.9-6.5-0.3-8.4c-1.5-2.4-4.3-3.8-18.1-8.7c-18.5-6.6-69.5-23.8-75-25.3
					c-2.1-0.6-2.4-1.6-0.9-3.4l1.2-1.4l8,1.1c4.4,0.6,13.9,2,21.2,3c7.3,1.1,17.6,2.5,23,3.2c25.9,3.4,45.6,5.8,53.8,6.8
					c5,0.6,14.4,1.7,21,2.5c6.6,0.8,19.3,2.3,28.2,3.3s17.2,2,18.2,2.3c4.7,1.1,8.7-0.2,9.7-3.2c0.9-2.5,0.6-5.8-0.6-7.9
					c-2.1-3.7-3.2-4-30.2-7.1c-13.2-1.5-31.9-3.6-41.5-4.6c-18.5-1.9-47.4-5.1-60-6.7c-4.1-0.5-15.5-2-25.2-3.2s-18.8-2.4-20-2.6
					c-2.1-0.3-2.3-0.4-2.2-1.6c0.1-1.2,0.4-1.4,5.8-3.2c3.1-1,6-2,6.5-2.2s1-0.4,1.2-0.4s2.3-0.7,4.5-1.5
					c4.4-1.5,28.1-8.3,37.2-10.7c19.2-5.1,52-11.9,57-11.5c1,0.6,4.5,0.2,20.5-2.4c10.9-1.8,14-1.8,11-0.2c-0.5,0.3-1,0.7-1,1
					c0,0.3,8.3,0.4,19.1,0.4c20.9-0.1,25.4,0.2,38.1,2.7c18.3,3.6,26.7,6.6,34.1,12.2c2.6,1.9,3.4,2.3,4.5,2
					c0.7-0.2,1.9-0.4,2.6-0.5s1.5-0.2,1.8-0.2s1.2-0.6,2-1.3c1.2-1,1.8-1.1,3.2-0.9l1.7,0.4l0.1,3.9c0.1,3.1-0.1,4.7-1.2,8
					c-6.3,19.5-25,44-48.9,63.8c-12.8,10.6-30.5,22.4-41,27.3C589.7,269.2,573.5,272.7,563.8,271.7L563.8,271.7z"/>
				<path class="st4" d="M563.8,271.7c-9.9-1-22.6-3.7-31.9-6.9c-19.3-6.5-46.9-21.5-71.4-39c-3.7-2.6-7.6-5.4-8.7-6.1
					c-1.5-1.1-1.9-1.6-0.5-4.7c27.8,8.8,60.9,20.7,69.9,25.2c3.1,1.6,4.7,2,7.2,2.2c3.4,0.2,4.8-0.4,4.1-1.7
					c-0.3-0.5-0.2-1.3,0.3-2.1c1-2,0.9-6.5-0.3-8.4c-1.5-2.4-4.3-3.8-18.1-8.7c-18.5-6.6-69.5-23.8-75-25.3
					c-2.1-0.6-2.4-1.6-0.9-3.4l1.2-1.4l8,1.1c4.4,0.6,13.9,2,21.2,3c7.3,1.1,17.6,2.5,23,3.2c25.9,3.4,45.6,5.8,53.8,6.8
					c5,0.6,14.4,1.7,21,2.5c6.6,0.8,19.3,2.3,28.2,3.3s17.2,2,18.2,2.3c4.7,1.1,8.7-0.2,9.7-3.2c0.9-2.5,0.6-5.8-0.6-7.9
					c-2.1-3.7-3.2-4-30.2-7.1c-13.2-1.5-31.9-3.6-41.5-4.6c-18.5-1.9-47.4-5.1-60-6.7c-4.1-0.5-15.5-2-25.2-3.2s-18.8-2.4-20-2.6
					c-2.1-0.3-2.3-0.4-2.2-1.6c0.1-1.2,0.4-1.4,5.8-3.2c3.1-1,6-2,6.5-2.2s1-0.4,1.2-0.4s2.3-0.7,4.5-1.5
					c4.4-1.5,28.1-8.3,37.2-10.7c19.2-5.1,52-11.9,57-11.5c1,0.6,4.5,0.2,20.5-2.4c10.9-1.8,14-1.8,11-0.2c-0.5,0.3-1,0.7-1,1
					c0,0.3,8.3,0.4,19.1,0.4c20.9-0.1,25.4,0.2,38.1,2.7c18.3,3.6,26.7,6.6,34.1,12.2c2.6,1.9,3.4,2.3,4.5,2
					c0.7-0.2,1.9-0.4,2.6-0.5s1.5-0.2,1.8-0.2s1.2-0.6,2-1.3c1.2-1,1.8-1.1,3.2-0.9l1.7,0.4l0.1,3.9c0.1,3.1-0.1,4.7-1.2,8
					c-6.3,19.5-25,44-48.9,63.8c-12.8,10.6-30.5,22.4-41,27.3C589.7,269.2,573.5,272.7,563.8,271.7L563.8,271.7z"/>
			</g>
			<g transform="matrix(1,0,0,1,0,0)">
				<path class="st3" d="M347.2,253.7c-0.8-0.1-3.5-0.6-5.9-1.2c-16.3-3.8-30.3-14.7-37.4-29.2c-3.5-7.1-6.4-16.8-7.5-24.9
					c-2.3-17.1,2.7-46.9,10.7-63.7c3.5-7.3,6.9-12.2,11.9-17c5-4.8,7.5-6.5,13.4-9.4c7.1-3.4,19.3-6.2,21-4.9
					c0.3,0.3,1.5,0.7,2.5,0.8c2.5,0.5,12.7,4.4,15.4,6c3.3,1.9,12.2,9.6,15.4,13.3c5.6,6.6,10.2,14.4,15.8,27.4c1,2.3,1.9,4.5,2,5
					s0.4,1.4,0.8,2c0.6,1.1,1.6,4.8,2.3,8.3c0.6,3.1,0.9,4.5,1.2,4.7c0.2,0.1,0.2,5.1,0,11c-0.4,12.7-1.6,19.7-5.2,29.3
					c-3.4,9.2-5.1,12.5-9.5,18.1c-2.8,3.6-2.9,4.8-0.4,5c1.9,0.2,3.1-0.6,3.1-2c0-0.5,1.3-2.7,2.9-4.9c3.9-5.4,7.5-10.2,8.4-11.2
					c0.6-5.6,7.4-2.9,3.8,0.5c-1.1-0.3-1.8,0.5-3.3,4.2c-1.2,2.7-1.2,3.2-0.6,3.7c0.6,0.5,0.4,1-1.5,3.9
					c-8.5,12.7-24.5,22.8-39.3,24.8C363.7,254,350.7,254.1,347.2,253.7L347.2,253.7z"/>
				<path class="st4" d="M347.2,253.7c-0.8-0.1-3.5-0.6-5.9-1.2c-16.3-3.8-30.3-14.7-37.4-29.2c-3.5-7.1-6.4-16.8-7.5-24.9
					c-2.3-17.1,2.7-46.9,10.7-63.7c3.5-7.3,6.9-12.2,11.9-17c5-4.8,7.5-6.5,13.4-9.4c7.1-3.4,19.3-6.2,21-4.9
					c0.3,0.3,1.5,0.7,2.5,0.8c2.5,0.5,12.7,4.4,15.4,6c3.3,1.9,12.2,9.6,15.4,13.3c5.6,6.6,10.2,14.4,15.8,27.4c1,2.3,1.9,4.5,2,5
					s0.4,1.4,0.8,2c0.6,1.1,1.6,4.8,2.3,8.3c0.6,3.1,0.9,4.5,1.2,4.7c0.2,0.1,0.2,5.1,0,11c-0.4,12.7-1.6,19.7-5.2,29.3
					c-3.4,9.2-5.1,12.5-9.5,18.1c-2.8,3.6-2.9,4.8-0.4,5c1.9,0.2,3.1-0.6,3.1-2c0-0.5,1.3-2.7,2.9-4.9c3.9-5.4,7.5-10.2,8.4-11.2
					c0.6-5.6,7.4-2.9,3.8,0.5c-1.1-0.3-1.8,0.5-3.3,4.2c-1.2,2.7-1.2,3.2-0.6,3.7c0.6,0.5,0.4,1-1.5,3.9
					c-8.5,12.7-24.5,22.8-39.3,24.8C363.7,254,350.7,254.1,347.2,253.7L347.2,253.7z"/>
			</g>
			<g transform="matrix(1,0,0,1,0,0)">
				<path class="st3" d="M333.4,429.7c-23-2-48.3-7.4-62.7-13.3c-3.2-1.3-3.7-1.7-4.8-3.8c-2.6-4.8-7-20-8.2-28.3
					c-0.4-3.1-0.9-5.7-1-5.9c-0.7-1.1,1.7-0.6,8.7,1.8c39.2,13.9,100.3,17.2,151.6,8.2c6.5-1.1,21.8-4.9,26.2-6.4
					c3.6-1.3,4.7-1.4,3.7-0.3c-0.4,0.4-1,2.4-1.3,4.4c-0.8,4.6-2.2,9.6-4.1,14.3c-1.8,4.4-1.8,4.8-0.2,5.5c1.4,0.6,2,0.1,5.8-4.3
					c0.7-0.9,2-1.9,2.8-2.3c1.6-0.8,2.9-0.4,2.5,0.9c-0.2,0.4-0.1,0.8,0.2,0.9c0.7,0.2-1.5,5.9-4.1,8.3c-0.6-0.1-2.6,3-2.2,3.6
					c0.5,0.9-1.2,2.1-5.5,3.8c-12.8,5.3-28.2,8.9-51.5,12c-8.6,1.2-11.3,1.3-28.8,1.4C347.2,430.4,338.8,430.2,333.4,429.7
					L333.4,429.7z"/>
				<path class="st4" d="M333.4,429.7c-23-2-48.3-7.4-62.7-13.3c-3.2-1.3-3.7-1.7-4.8-3.8c-2.6-4.8-7-20-8.2-28.3
					c-0.4-3.1-0.9-5.7-1-5.9c-0.7-1.1,1.7-0.6,8.7,1.8c39.2,13.9,100.3,17.2,151.6,8.2c6.5-1.1,21.8-4.9,26.2-6.4
					c3.6-1.3,4.7-1.4,3.7-0.3c-0.4,0.4-1,2.4-1.3,4.4c-0.8,4.6-2.2,9.6-4.1,14.3c-1.8,4.4-1.8,4.8-0.2,5.5c1.4,0.6,2,0.1,5.8-4.3
					c0.7-0.9,2-1.9,2.8-2.3c1.6-0.8,2.9-0.4,2.5,0.9c-0.2,0.4-0.1,0.8,0.2,0.9c0.7,0.2-1.5,5.9-4.1,8.3c-0.6-0.1-2.6,3-2.2,3.6
					c0.5,0.9-1.2,2.1-5.5,3.8c-12.8,5.3-28.2,8.9-51.5,12c-8.6,1.2-11.3,1.3-28.8,1.4C347.2,430.4,338.8,430.2,333.4,429.7
					L333.4,429.7z"/>
			</g>
			<g transform="matrix(1,0,0,1,0,0)">
				<path class="st3" d="M343.8,356.7c-28-1.4-51.7-5-72-11.2c-8.1-2.4-12.5-4.1-13-5c-0.7-1.2,7.1-27.2,8.8-29.2
					c0.2-0.2,3.9,0.7,8.1,2.1c21.1,6.9,41.4,10.3,69.4,11.6c31,1.5,62.7-2.4,89-10.7l3.8-1.2l0.6,1.3c1.5,3.2,5.6,15.9,7.1,21.9
					c1.4,5.8,1.6,6.7,0.9,7.3c-1.8,1.7-21.3,6.6-35.9,9C389.8,356.1,364,357.6,343.8,356.7L343.8,356.7z"/>
				<path class="st4" d="M343.8,356.7c-28-1.4-51.7-5-72-11.2c-8.1-2.4-12.5-4.1-13-5c-0.7-1.2,7.1-27.2,8.8-29.2
					c0.2-0.2,3.9,0.7,8.1,2.1c21.1,6.9,41.4,10.3,69.4,11.6c31,1.5,62.7-2.4,89-10.7l3.8-1.2l0.6,1.3c1.5,3.2,5.6,15.9,7.1,21.9
					c1.4,5.8,1.6,6.7,0.9,7.3c-1.8,1.7-21.3,6.6-35.9,9C389.8,356.1,364,357.6,343.8,356.7L343.8,356.7z"/>
			</g>
			<g transform="matrix(1,0,0,1,0,0)">
				<path class="st5" d="M395.4,230.6c-0.8-0.1-1.4-0.3-1.4-0.5c0-0.2,0.6-1.1,1.4-2.1c5.7-7.3,10.4-19.8,13-34.3
					c1-5.7,1.4-19.2,0.7-24.8c-0.6-5-1.1-6.7-2.9-9.9c-0.7-1.3-1.4-2.7-1.4-3.2s-0.9-2.7-1.9-5c-5.7-13-10.2-20.9-15.8-27.4
					c-3.3-3.9-12.1-11.4-15.7-13.5c-2.5-1.4-10.5-4.6-14.4-5.7c-1.1-0.3-2.1-0.9-2.2-1.3c-0.2-0.6,0.7-0.6,5.5-0.4
					c9.6,0.5,14.1,1.8,22.9,6.2c7.4,3.7,8,4.1,12.5,8.6c10.7,10.7,17.1,25.5,20.9,48.1c1.2,7,2.4,23.6,1.7,23.8
					c-0.3,0.1-0.4,1.4-0.3,2.9c0.2,3.5-0.1,4.6-2.4,4.5c-0.7-0.4-1.5,1.8-2,5.7c-0.3,1.7-1.1,4.5-1.9,6.1c-0.8,1.6-1.3,3.1-1,3.2
					c0.8,0.5,0.5,1.7-2.3,4.6c-1.1,1.4-5,6.5-8,10.8c-1.5,2.1-3,3.8-3.1,3.8S396.1,230.8,395.4,230.6L395.4,230.6z"/>
				<path class="st6" d="M395.4,230.6c-0.8-0.1-1.4-0.3-1.4-0.5c0-0.2,0.6-1.1,1.4-2.1c5.7-7.3,10.4-19.8,13-34.3
					c1-5.7,1.4-19.2,0.7-24.8c-0.6-5-1.1-6.7-2.9-9.9c-0.7-1.3-1.4-2.7-1.4-3.2s-0.9-2.7-1.9-5c-5.7-13-10.2-20.9-15.8-27.4
					c-3.3-3.9-12.1-11.4-15.7-13.5c-2.5-1.4-10.5-4.6-14.4-5.7c-1.1-0.3-2.1-0.9-2.2-1.3c-0.2-0.6,0.7-0.6,5.5-0.4
					c9.6,0.5,14.1,1.8,22.9,6.2c7.4,3.7,8,4.1,12.5,8.6c10.7,10.7,17.1,25.5,20.9,48.1c1.2,7,2.4,23.6,1.7,23.8
					c-0.3,0.1-0.4,1.4-0.3,2.9c0.2,3.5-0.1,4.6-2.4,4.5c-0.7-0.4-1.5,1.8-2,5.7c-0.3,1.7-1.1,4.5-1.9,6.1c-0.8,1.6-1.3,3.1-1,3.2
					c0.8,0.5,0.5,1.7-2.3,4.6c-1.1,1.4-5,6.5-8,10.8c-1.5,2.1-3,3.8-3.1,3.8S396.1,230.8,395.4,230.6L395.4,230.6z"/>
			</g>
			<g transform="matrix(1,0,0,1,0,0)">
				<path class="st3" d="M344.2,304.5c-5.5-0.3-7.5-0.7-12.7-2.2c-1.5-0.4-9.2-1.8-17.2-3c-11.3-1.8-15.6-2.6-19.8-4.1
					c-6.4-2.2-7.5-2.7-9-4.4c-2.8-2.9-0.8-7.1,7.1-14.9c2.6-2.5,4.8-5.3,5.3-6.5c0.5-1.1,1.6-3,2.5-4.2c3.6-5,7.6-5.4,13.5-1.5
					c4.4,2.9,12.4,6.9,16.6,8.3c11.4,3.7,27.7,4.5,42,2.1c8.8-1.5,12.5-2.8,20.9-7.4c9.4-5.1,11.5-6,12.3-5
					c3.1,3.3,18.1,22.9,17.6,22.9c-0.1,0,0.5,0.7,1.3,1.6c3.4,3.7,5.4,6.3,5,6.6c-0.2,0.2-0.4,0.6-0.4,0.9c0,0.8-2.8,1.7-13.1,4.2
					C391.9,303.7,367.5,305.9,344.2,304.5L344.2,304.5z"/>
				<path class="st4" d="M344.2,304.5c-5.5-0.3-7.5-0.7-12.7-2.2c-1.5-0.4-9.2-1.8-17.2-3c-11.3-1.8-15.6-2.6-19.8-4.1
					c-6.4-2.2-7.5-2.7-9-4.4c-2.8-2.9-0.8-7.1,7.1-14.9c2.6-2.5,4.8-5.3,5.3-6.5c0.5-1.1,1.6-3,2.5-4.2c3.6-5,7.6-5.4,13.5-1.5
					c4.4,2.9,12.4,6.9,16.6,8.3c11.4,3.7,27.7,4.5,42,2.1c8.8-1.5,12.5-2.8,20.9-7.4c9.4-5.1,11.5-6,12.3-5
					c3.1,3.3,18.1,22.9,17.6,22.9c-0.1,0,0.5,0.7,1.3,1.6c3.4,3.7,5.4,6.3,5,6.6c-0.2,0.2-0.4,0.6-0.4,0.9c0,0.8-2.8,1.7-13.1,4.2
					C391.9,303.7,367.5,305.9,344.2,304.5L344.2,304.5z"/>
			</g>
			<g transform="matrix(1,0,0,1,0,0)">
				<path class="st7" d="M324.5,302.7c-12.3-1.6-27.8-4.7-35.5-7.1c-6.7-2.1-10.5-3.5-11.2-4.1c-0.2-0.2,0.9-2.5,2.5-5
					c4.7-7.7,12.5-17.7,19.2-24.6l6.3-6.5l2.6,2c9,7.1,20.7,12.3,33.9,14.9c6.9,1.4,23.2,1.2,30.1-0.3c10-2.1,20.7-6.7,28.7-12.1
					c0,0,3-2,4,0.7c0,0.1-1,0.5-2.1,1c-1.2,0.5-5.4,2.6-9.5,4.9c-8.4,4.6-12.1,5.9-20.9,7.4c-14.3,2.5-30.6,1.7-42-2.1
					c-4.2-1.4-12.2-5.3-16.6-8.3c-5.9-3.9-9.8-3.5-13.5,1.5c-0.9,1.2-2,3.1-2.5,4.2c-0.5,1.2-2.8,4-5.3,6.5
					c-7.9,7.9-9.9,12-7.1,14.9c1.6,1.7,2.6,2.2,9,4.4c4.2,1.4,8.5,2.3,19.8,4.1c8,1.2,15.7,2.6,17.2,3s3.6,1,4.7,1.2l2,0.4l-2.2,0
					C334.8,303.9,329.6,303.4,324.5,302.7L324.5,302.7z"/>
				<path class="st8" d="M324.5,302.7c-12.3-1.6-27.8-4.7-35.5-7.1c-6.7-2.1-10.5-3.5-11.2-4.1c-0.2-0.2,0.9-2.5,2.5-5
					c4.7-7.7,12.5-17.7,19.2-24.6l6.3-6.5l2.6,2c9,7.1,20.7,12.3,33.9,14.9c6.9,1.4,23.2,1.2,30.1-0.3c10-2.1,20.7-6.7,28.7-12.1
					c0,0,3-2,4,0.7c0,0.1-1,0.5-2.1,1c-1.2,0.5-5.4,2.6-9.5,4.9c-8.4,4.6-12.1,5.9-20.9,7.4c-14.3,2.5-30.6,1.7-42-2.1
					c-4.2-1.4-12.2-5.3-16.6-8.3c-5.9-3.9-9.8-3.5-13.5,1.5c-0.9,1.2-2,3.1-2.5,4.2c-0.5,1.2-2.8,4-5.3,6.5
					c-7.9,7.9-9.9,12-7.1,14.9c1.6,1.7,2.6,2.2,9,4.4c4.2,1.4,8.5,2.3,19.8,4.1c8,1.2,15.7,2.6,17.2,3s3.6,1,4.7,1.2l2,0.4l-2.2,0
					C334.8,303.9,329.6,303.4,324.5,302.7L324.5,302.7z"/>
			</g>
			<g transform="matrix(1,0,0,1,0,0)">
				<path class="st3" d="M350,483.7c-13.6-1.2-24.5-2.9-33.5-5.2c-8.8-2.2-9.1-2.4-11.8-5.8c-1.3-1.7-4-4.8-5.9-7
					c-5.5-6.3-12.5-17.2-11.1-17.2c0.1,0,4,1,8.6,2.2c29.4,7.8,64.8,9.4,99.1,4.5c9.4-1.4,23.4-4.6,27.8-6.4c2-0.8,4.5-0.5,4.1,0.5
					c-0.9,2.4-13.5,19.2-18,24c-2.3,2.5-2.8,2.8-7.9,4.4c-7.2,2.3-15.5,4-23.8,4.9C370.7,483.5,354.1,484.1,350,483.7L350,483.7z"/>
				<path class="st4" d="M350,483.7c-13.6-1.2-24.5-2.9-33.5-5.2c-8.8-2.2-9.1-2.4-11.8-5.8c-1.3-1.7-4-4.8-5.9-7
					c-5.5-6.3-12.5-17.2-11.1-17.2c0.1,0,4,1,8.6,2.2c29.4,7.8,64.8,9.4,99.1,4.5c9.4-1.4,23.4-4.6,27.8-6.4c2-0.8,4.5-0.5,4.1,0.5
					c-0.9,2.4-13.5,19.2-18,24c-2.3,2.5-2.8,2.8-7.9,4.4c-7.2,2.3-15.5,4-23.8,4.9C370.7,483.5,354.1,484.1,350,483.7L350,483.7z"/>
			</g>
			<g transform="matrix(1,0,0,1,0,0)">
				<path class="st9" d="M237,171c-8-1.1-39.6-6.4-50.2-8.5c-4.1-0.8-12.9-2.4-19.5-3.5s-15.6-2.7-20-3.5c-4.4-0.8-11.8-2-16.5-2.7
					c-4.7-0.7-12.3-1.8-17-2.5c-4.7-0.7-12.6-1.5-17.5-1.9c-5-0.3-9.2-0.8-9.3-1.1c-0.8-1.2,3.6-2.4,10.3-2.8c3.6-0.2,7-0.6,7.6-0.7
					c0.6-0.1,5.1-0.4,10-0.6c9.9-0.4,12.2-0.1,33,3.1c25.2,3.9,53.4,9.9,80,17.2c6.7,1.8,18.2,4.9,22.6,6c1.9,0.5,2.1,0.6,1.5,1.5
					c-0.5,0.8-1.1,1-4.4,0.9C245.4,171.9,240.7,171.5,237,171L237,171z"/>
				<path class="st10" d="M237,171c-8-1.1-39.6-6.4-50.2-8.5c-4.1-0.8-12.9-2.4-19.5-3.5s-15.6-2.7-20-3.5c-4.4-0.8-11.8-2-16.5-2.7
					c-4.7-0.7-12.3-1.8-17-2.5c-4.7-0.7-12.6-1.5-17.5-1.9c-5-0.3-9.2-0.8-9.3-1.1c-0.8-1.2,3.6-2.4,10.3-2.8c3.6-0.2,7-0.6,7.6-0.7
					c0.6-0.1,5.1-0.4,10-0.6c9.9-0.4,12.2-0.1,33,3.1c25.2,3.9,53.4,9.9,80,17.2c6.7,1.8,18.2,4.9,22.6,6c1.9,0.5,2.1,0.6,1.5,1.5
					c-0.5,0.8-1.1,1-4.4,0.9C245.4,171.9,240.7,171.5,237,171L237,171z"/>
			</g>
			<g transform="matrix(1,0,0,1,0,0)">
				<path class="st9" d="M677.3,160.7c-7.1-5.5-15.7-8.6-34-12.1c-11.5-2.3-30.1-3.9-38.5-3.4c-11.9,0.7-18.8,0.9-18.8,0.4
					c0-0.7,4.2-3.1,5.5-3.1c0.9,0,2.8-0.8,3.5-1.5c1-1,13.4-2.2,28.8-2.8c21-0.7,43.4,3.1,57.1,9.8c5.1,2.5,10.2,6.6,10.2,8.2
					c0,0.4,0.2,0.8,0.4,0.8c0.4,0,1.6,2.1,1.6,2.8c0,0.2-0.8,0.2-1.7,0c-1.3-0.2-1.9,0-2.6,0.7c-0.8,0.9-3.1,1.9-4.7,1.9
					c-0.4,0-1.4,0.2-2.2,0.3C680.5,163,679.7,162.6,677.3,160.7L677.3,160.7z"/>
				<path class="st10" d="M677.3,160.7c-7.1-5.5-15.7-8.6-34-12.1c-11.5-2.3-30.1-3.9-38.5-3.4c-11.9,0.7-18.8,0.9-18.8,0.4
					c0-0.7,4.2-3.1,5.5-3.1c0.9,0,2.8-0.8,3.5-1.5c1-1,13.4-2.2,28.8-2.8c21-0.7,43.4,3.1,57.1,9.8c5.1,2.5,10.2,6.6,10.2,8.2
					c0,0.4,0.2,0.8,0.4,0.8c0.4,0,1.6,2.1,1.6,2.8c0,0.2-0.8,0.2-1.7,0c-1.3-0.2-1.9,0-2.6,0.7c-0.8,0.9-3.1,1.9-4.7,1.9
					c-0.4,0-1.4,0.2-2.2,0.3C680.5,163,679.7,162.6,677.3,160.7L677.3,160.7z"/>
			</g>
			<g transform="matrix(1,0,0,1,0,0)">
				<path class="st3" d="M353,521.5c-10.6-7.3-25.2-19.9-24.2-20.9c0.3-0.4,2.4-0.3,6.5,0.3c8,1.1,32.5,1.1,40.5,0
					c5.2-0.7,5.5-0.7,6.4,0.2c1.9,1.9,1.2,3.4-3.4,7.4c-9.2,8-18.3,14.7-20.7,15.3C357,524,355.9,523.5,353,521.5L353,521.5z"/>
				<path class="st4" d="M353,521.5c-10.6-7.3-25.2-19.9-24.2-20.9c0.3-0.4,2.4-0.3,6.5,0.3c8,1.1,32.5,1.1,40.5,0
					c5.2-0.7,5.5-0.7,6.4,0.2c1.9,1.9,1.2,3.4-3.4,7.4c-9.2,8-18.3,14.7-20.7,15.3C357,524,355.9,523.5,353,521.5L353,521.5z"/>
			</g>
			<g transform="matrix(1,0,0,1,0,0)">
				<path class="st5" d="M425.6,287.3c-1.4-1.5-2.5-2.8-2.3-2.8c0.4,0-6.6-9.3-12.6-16.8c-3.1-3.9-5.9-7.6-6.1-8.3
					c-0.4-1.2-0.3-1.4,1.8-2.8c1.3-0.8,2.6-1.4,3-1.2c1.1,0.6,12.8,13.3,16,17.3c1.7,2.2,3.3,4.2,3.6,4.5c2,2.5,5,7.4,5,8.2
					c0,1.1-2.6,4-3.7,4c-0.4,0-1.1,0.1-1.5,0.3C428.5,289.9,427.2,288.9,425.6,287.3L425.6,287.3z"/>
				<path class="st6" d="M425.6,287.3c-1.4-1.5-2.5-2.8-2.3-2.8c0.4,0-6.6-9.3-12.6-16.8c-3.1-3.9-5.9-7.6-6.1-8.3
					c-0.4-1.2-0.3-1.4,1.8-2.8c1.3-0.8,2.6-1.4,3-1.2c1.1,0.6,12.8,13.3,16,17.3c1.7,2.2,3.3,4.2,3.6,4.5c2,2.5,5,7.4,5,8.2
					c0,1.1-2.6,4-3.7,4c-0.4,0-1.1,0.1-1.5,0.3C428.5,289.9,427.2,288.9,425.6,287.3L425.6,287.3z"/>
			</g>
			<g transform="matrix(1,0,0,1,0,0)">
				<path class="st5" d="M446.1,338.4c-0.3-0.9-1-3.5-1.5-5.9s-2.2-7.4-3.6-11.2c-1.4-3.9-2.6-7.3-2.6-7.7c-0.1-0.6,8.5-4.4,9-3.9
					c0.1,0.1,1.4,3.8,2.9,8.1c2.8,8.3,4.4,14,5,17.9c0.3,2.3,0.3,2.3-1.1,2.3c-0.8,0-1.7,0.3-2.1,0.6c-0.3,0.3-0.6,0.5-0.6,0.3
					c0-0.2-1.1,0-2.4,0.4c-1.3,0.4-2.4,0.7-2.5,0.7S446.3,339.3,446.1,338.4L446.1,338.4z"/>
				<path class="st6" d="M446.1,338.4c-0.3-0.9-1-3.5-1.5-5.9s-2.2-7.4-3.6-11.2c-1.4-3.9-2.6-7.3-2.6-7.7c-0.1-0.6,8.5-4.4,9-3.9
					c0.1,0.1,1.4,3.8,2.9,8.1c2.8,8.3,4.4,14,5,17.9c0.3,2.3,0.3,2.3-1.1,2.3c-0.8,0-1.7,0.3-2.1,0.6c-0.3,0.3-0.6,0.5-0.6,0.3
					c0-0.2-1.1,0-2.4,0.4c-1.3,0.4-2.4,0.7-2.5,0.7S446.3,339.3,446.1,338.4L446.1,338.4z"/>
			</g>
			<g transform="matrix(1,0,0,1,0,0)">
				<path class="st11" d="M556.6,146.9c0.2-0.8,0.9-1,13.1-3.1c8.8-1.6,24.6-3.8,26.7-3.7c1.4,0.6-2.4,0.8-1.5,0.8
					c0,0.6-2.5,1.7-3.7,1.7c-0.6,0-1.5,0.4-2.1,0.8c-0.6,0.4-1.1,0.6-1.1,0.3c0-0.5-3.5-0.3-9,0.6c-6.3,1.1-20.9,3.2-21.8,3.2
					C556.8,147.5,556.6,147.2,556.6,146.9L556.6,146.9z"/>
				<path class="st12" d="M556.6,146.9c0.2-0.8,0.9-1,13.1-3.1c8.8-1.6,24.6-3.8,26.7-3.7c1.4,0.6-2.4,0.8-1.5,0.8
					c0,0.6-2.5,1.7-3.7,1.7c-0.6,0-1.5,0.4-2.1,0.8c-0.6,0.4-1.1,0.6-1.1,0.3c0-0.5-3.5-0.3-9,0.6c-6.3,1.1-20.9,3.2-21.8,3.2
					C556.8,147.5,556.6,147.2,556.6,146.9L556.6,146.9z"/>
			</g>
			<g transform="matrix(1,0,0,1,0,0)">
				<path class="st5" d="M441.1,405.9c-1.4-0.7-1.4-1.1,0.3-5.5c1.9-4.7,3.3-9.8,4.1-14.2c0.8-4.6,1.1-5.1,2.4-4
					c0.6,0.5,1.4,0.8,2,0.6c2.3-0.7,2.6,0,2.4,5.5c-0.2,5.2-1.1,8.2-4.2,12.3c-0.2,0.1-1.3,1.2-2.3,2.6
					C443.4,406.1,442.6,406.5,441.1,405.9L441.1,405.9z"/>
				<path class="st6" d="M441.1,405.9c-1.4-0.7-1.4-1.1,0.3-5.5c1.9-4.7,3.3-9.8,4.1-14.2c0.8-4.6,1.1-5.1,2.4-4
					c0.6,0.5,1.4,0.8,2,0.6c2.3-0.7,2.6,0,2.4,5.5c-0.2,5.2-1.1,8.2-4.2,12.3c-0.2,0.1-1.3,1.2-2.3,2.6
					C443.4,406.1,442.6,406.5,441.1,405.9L441.1,405.9z"/>
			</g>
			<g transform="matrix(1,0,0,1,0,0)">
				<path class="st13" d="M452.3,387.9c0.1-5.2-0.1-5.7-2.5-5.1c-1.5,0.4-2.5-0.8-1.7-1.9c0.8-1,9.5-4.5,10-3.9
					c0.2,0.2-0.2,3.3-0.9,6.9c-1.8,8.6-1.6,8.3-2.8,7.7c-1.3-0.7-1.9-0.6-2.1,0.4C452.3,392.4,452.2,390.6,452.3,387.9L452.3,387.9z
					"/>
				<path class="st14" d="M452.3,387.9c0.1-5.2-0.1-5.7-2.5-5.1c-1.5,0.4-2.5-0.8-1.7-1.9c0.8-1,9.5-4.5,10-3.9
					c0.2,0.2-0.2,3.3-0.9,6.9c-1.8,8.6-1.6,8.3-2.8,7.7c-1.3-0.7-1.9-0.6-2.1,0.4C452.3,392.4,452.2,390.6,452.3,387.9L452.3,387.9z
					"/>
			</g>
			<g transform="matrix(1,0,0,1,0,0)">
				<path class="st15" d="M429.3,293.6c-0.2-0.3-0.1-0.7-1.4-3.5l2-0.5c2-0.5,4.1-2.6,4.1-4.1c0-0.4,0.8,0.7,1.8,2.5
					c1,1.7,1.7,3.2,1.6,3.3s-1.6,0.6-3.4,1.3c-1.8,0.6-3.5,1.3-3.8,1.4C429.9,294,429.5,293.8,429.3,293.6L429.3,293.6z"/>
				<path class="st16" d="M429.3,293.6c-0.2-0.3-0.1-0.7-1.4-3.5l2-0.5c2-0.5,4.1-2.6,4.1-4.1c0-0.4,0.8,0.7,1.8,2.5
					c1,1.7,1.7,3.2,1.6,3.3s-1.6,0.6-3.4,1.3c-1.8,0.6-3.5,1.3-3.8,1.4C429.9,294,429.5,293.8,429.3,293.6L429.3,293.6z"/>
			</g>
			<g transform="matrix(1,0,0,1,0,0)">
				<path class="st17" d="M446.7,342c0-1.8,0.1-2,1.5-2.5c0.8-0.3,2-0.6,2.5-0.7c0.5-0.1,1.3-0.3,1.8-0.5c0.4-0.2,1.4-0.4,3.6,2.2
					c-0.3,0.3-8.7,3.4-9.2,3.4C446.8,344,446.7,343.1,446.7,342L446.7,342z"/>
				<path class="st18" d="M446.7,342c0-1.8,0.1-2,1.5-2.5c0.8-0.3,2-0.6,2.5-0.7c0.5-0.1,1.3-0.3,1.8-0.5c0.4-0.2,1.4-0.4,3.6,2.2
					c-0.3,0.3-8.7,3.4-9.2,3.4C446.8,344,446.7,343.1,446.7,342L446.7,342z"/>
			</g>
			<g transform="matrix(1,0,0,1,0,0)">
				<path class="st19" d="M452.3,400.2c0.5-1.3-0.8-1.8-2.4-0.9c-1.5,0.8-1.9,0.2-0.6-1c0.9-0.9,3.2-5.7,3.2-6.7
					c0-0.8,1.1-0.8,2.2,0c0.9,0.6,0.9,0.8-0.3,4.8c-0.7,2.3-1.5,4.3-1.8,4.4C452.2,401,452.1,400.8,452.3,400.2L452.3,400.2z"/>
				<path class="st20" d="M452.3,400.2c0.5-1.3-0.8-1.8-2.4-0.9c-1.5,0.8-1.9,0.2-0.6-1c0.9-0.9,3.2-5.7,3.2-6.7
					c0-0.8,1.1-0.8,2.2,0c0.9,0.6,0.9,0.8-0.3,4.8c-0.7,2.3-1.5,4.3-1.8,4.4C452.2,401,452.1,400.8,452.3,400.2L452.3,400.2z"/>
			</g>
			<g transform="matrix(1,0,0,1,0,0)">
				<path class="st19" d="M98.7,144.2c0.4-0.5,0.7-0.5,2.3-0.6c0.5,0,1.1-0.5,1.2-1.1c0.2-0.9,0.7-1,4.2-0.9c2.2,0,6.5,0.3,9.7,0.7
					c6.3,0.7,6.3,0.7-4,1.1c-3.9,0.1-9.6,0.6-12,1.1C99,144.5,98.4,144.4,98.7,144.2L98.7,144.2z"/>
				<path class="st20" d="M98.7,144.2c0.4-0.5,0.7-0.5,2.3-0.6c0.5,0,1.1-0.5,1.2-1.1c0.2-0.9,0.7-1,4.2-0.9c2.2,0,6.5,0.3,9.7,0.7
					c6.3,0.7,6.3,0.7-4,1.1c-3.9,0.1-9.6,0.6-12,1.1C99,144.5,98.4,144.4,98.7,144.2L98.7,144.2z"/>
			</g>
			<g transform="matrix(1,0,0,1,0,0)">
				<path class="st21" d="M410.4,211.7c-0.2-0.2,0.3-1.4,1-2.8c0.7-1.4,1.5-3.4,1.8-4.5c0.7-2.3,1.9-2.9,2.8-1.2
					c0.6,1.1,0,3.9-0.8,3.7c-0.7-0.1-2.1,0.7-2.1,1.2C413,208.8,410.7,212,410.4,211.7L410.4,211.7z"/>
				<path class="st22" d="M410.4,211.7c-0.2-0.2,0.3-1.4,1-2.8c0.7-1.4,1.5-3.4,1.8-4.5c0.7-2.3,1.9-2.9,2.8-1.2
					c0.6,1.1,0,3.9-0.8,3.7c-0.7-0.1-2.1,0.7-2.1,1.2C413,208.8,410.7,212,410.4,211.7L410.4,211.7z"/>
			</g>
			<g transform="matrix(1,0,0,1,0,0)">
				<path class="st23" d="M92.6,142.9l0.2-1.6l6.2-0.1c3.4,0,5.6,0,4.8,0.2c-0.9,0.1-1.5,0.6-1.7,1.2c-0.1,0.5-0.7,1-1.2,1
					c-1.6,0.1-1.8,0.2-2.2,0.6c-0.2,0.2-1.7,0.4-3.3,0.4h-2.9L92.6,142.9L92.6,142.9z"/>
				<path class="st24" d="M92.6,142.9l0.2-1.6l6.2-0.1c3.4,0,5.6,0,4.8,0.2c-0.9,0.1-1.5,0.6-1.7,1.2c-0.1,0.5-0.7,1-1.2,1
					c-1.6,0.1-1.8,0.2-2.2,0.6c-0.2,0.2-1.7,0.4-3.3,0.4h-2.9L92.6,142.9L92.6,142.9z"/>
			</g>
			<g transform="matrix(1,0,0,1,0,0)">
				<path class="st23" d="M407.8,224.5c-0.3-0.6,2-6.4,2.9-7.3c0.4-0.4,0.9-0.5,1.3-0.2c0.5,0.3,0.4,0.9-0.5,3.1
					C409.6,224.5,408.6,225.8,407.8,224.5L407.8,224.5z"/>
				<path class="st24" d="M407.8,224.5c-0.3-0.6,2-6.4,2.9-7.3c0.4-0.4,0.9-0.5,1.3-0.2c0.5,0.3,0.4,0.9-0.5,3.1
					C409.6,224.5,408.6,225.8,407.8,224.5L407.8,224.5z"/>
			</g>
			<g transform="matrix(1,0,0,1,0,0)">
				<path class="st23" d="M446.1,413.4c0.1-1.5,1.6-4.2,4.4-5.9c0,1.2-2.5,6-3.4,6.5C446.2,414.4,446.1,414.4,446.1,413.4
					L446.1,413.4z"/>
				<path class="st24" d="M446.1,413.4c0.1-1.5,1.6-4.2,4.4-5.9c0,1.2-2.5,6-3.4,6.5C446.2,414.4,446.1,414.4,446.1,413.4
					L446.1,413.4z"/>
			</g>
			<g transform="matrix(1,0,0,1,0,0)">
				<path class="st17" d="M415.7,202.9c-0.2-0.5-0.7-0.7-1.3-0.6c-0.7,0.1-1-0.1-0.9-0.9c0.1-1.7,1.3-4.6,3.2-5.3
					c0.6,0.5,0.7,1.2,0.5,3.7C416.9,202.9,416.2,204.2,415.7,202.9L415.7,202.9z"/>
				<path class="st18" d="M415.7,202.9c-0.2-0.5-0.7-0.7-1.3-0.6c-0.7,0.1-1-0.1-0.9-0.9c0.1-1.7,1.3-4.6,3.2-5.3
					c0.6,0.5,0.7,1.2,0.5,3.7C416.9,202.9,416.2,204.2,415.7,202.9L415.7,202.9z"/>
			</g>
			<g transform="matrix(1,0,0,1,0,0)">
				<path class="st25" d="M383,503.4c0-0.8-0.5-1.8-0.9-3.4c0.6,0,2-0.1,3-0.3c1-0.2,1.9-0.1,1.9,0.1c0,0.2-0.9,1.5-2,2.7
					C383.1,504.7,383,504.7,383,503.4L383,503.4z"/>
				<path class="st26" d="M383,503.4c0-0.8-0.5-1.8-0.9-3.4c0.6,0,2-0.1,3-0.3c1-0.2,1.9-0.1,1.9,0.1c0,0.2-0.9,1.5-2,2.7
					C383.1,504.7,383,504.7,383,503.4L383,503.4z"/>
			</g>
			<g transform="matrix(1,0,0,1,0,0)">
				<path class="st27" d="M408.3,169.2c-0.2-1.1-0.5-2.6-0.6-3.2c-0.1-0.7-0.5-2.1-0.7-3.2c-0.3-1.1-0.4-2-0.2-2.2
					c0.7-0.7,2.5,6.9,2.2,9.3C408.8,171.1,408.7,171,408.3,169.2L408.3,169.2z"/>
				<path class="st28" d="M408.3,169.2c-0.2-1.1-0.5-2.6-0.6-3.2c-0.1-0.7-0.5-2.1-0.7-3.2c-0.3-1.1-0.4-2-0.2-2.2
					c0.7-0.7,2.5,6.9,2.2,9.3C408.8,171.1,408.7,171,408.3,169.2L408.3,169.2z"/>
			</g>
			<g transform="matrix(1,0,0,1,0,0)">
				<path class="st23" d="M412.4,212.7c-1.6-0.9-1.7-1.1-0.4-2.7c0.5-0.7,1-1.5,1-1.8c0-0.5,1-1.2,2.4-1.5c0.6-0.1,0.6,0.2-0.4,4.4
					C414.4,213.4,414.1,213.6,412.4,212.7L412.4,212.7z"/>
				<path class="st24" d="M412.4,212.7c-1.6-0.9-1.7-1.1-0.4-2.7c0.5-0.7,1-1.5,1-1.8c0-0.5,1-1.2,2.4-1.5c0.6-0.1,0.6,0.2-0.4,4.4
					C414.4,213.4,414.1,213.6,412.4,212.7L412.4,212.7z"/>
			</g>
			<g transform="matrix(1,0,0,1,0,0)">
				<path class="st23" d="M273.7,197.1c0.2-0.3,0.1-0.7-0.2-0.9c-0.3-0.2-0.5-1-0.5-1.7c0-1.2,0.3-1.5,1.6-1.8
					c1.8-0.4,2.4,0.2,2.4,2.6c0,1-0.2,1.6-0.6,1.6c-0.3,0-1.2,0.2-1.8,0.3C273.7,197.6,273.5,197.5,273.7,197.1L273.7,197.1z"/>
				<path class="st24" d="M273.7,197.1c0.2-0.3,0.1-0.7-0.2-0.9c-0.3-0.2-0.5-1-0.5-1.7c0-1.2,0.3-1.5,1.6-1.8
					c1.8-0.4,2.4,0.2,2.4,2.6c0,1-0.2,1.6-0.6,1.6c-0.3,0-1.2,0.2-1.8,0.3C273.7,197.6,273.5,197.5,273.7,197.1L273.7,197.1z"/>
			</g>
			<g transform="matrix(1,0,0,1,0,0)">
				<path class="st29" d="M268.5,179.1c0-0.3,0.2-1.1,0.5-1.9c0.4-1.2,0.7-1.3,2.1-1c0.9,0.2,2.1,0.6,2.8,0.9c0.9,0.5,1,0.7,0.5,1.2
					C273.4,179.2,268.5,179.8,268.5,179.1L268.5,179.1z"/>
				<path class="st30" d="M268.5,179.1c0-0.3,0.2-1.1,0.5-1.9c0.4-1.2,0.7-1.3,2.1-1c0.9,0.2,2.1,0.6,2.8,0.9c0.9,0.5,1,0.7,0.5,1.2
					C273.4,179.2,268.5,179.8,268.5,179.1L268.5,179.1z"/>
			</g>
			<g transform="matrix(1,0,0,1,0,0)">
				<path class="st31" d="M392.3,234.2c-0.6-0.6-0.4-1.7,0.5-2.9c1.2-1.5,3.8-1.1,4,0.6c0.1,0.6-0.1,1.5-0.4,1.9
					C395.9,234.5,393,234.8,392.3,234.2L392.3,234.2z"/>
				<path class="st32" d="M392.3,234.2c-0.6-0.6-0.4-1.7,0.5-2.9c1.2-1.5,3.8-1.1,4,0.6c0.1,0.6-0.1,1.5-0.4,1.9
					C395.9,234.5,393,234.8,392.3,234.2L392.3,234.2z"/>
			</g>
			<g transform="matrix(1,0,0,1,0,0)">
				<path class="st23" d="M447.5,216.5c-1.3-1.1-1.6-1.6-1.2-2c1.3-1.3,4.5,1,3.8,2.8C449.8,218.3,449.5,218.2,447.5,216.5
					L447.5,216.5z"/>
				<path class="st24" d="M447.5,216.5c-1.3-1.1-1.6-1.6-1.2-2c1.3-1.3,4.5,1,3.8,2.8C449.8,218.3,449.5,218.2,447.5,216.5
					L447.5,216.5z"/>
			</g>
			<g transform="matrix(1,0,0,1,0,0)">
				<path class="st23" d="M250.8,172.5c-1.5-0.3-1.6-0.4-0.7-0.4c0.7,0,1.5-0.4,1.6-0.8c0.4-1,1-0.9,4.4,0.1
					c2.6,0.8,2.7,0.8,1.2,1.2C255.4,173,253.3,173,250.8,172.5L250.8,172.5z"/>
				<path class="st24" d="M250.8,172.5c-1.5-0.3-1.6-0.4-0.7-0.4c0.7,0,1.5-0.4,1.6-0.8c0.4-1,1-0.9,4.4,0.1
					c2.6,0.8,2.7,0.8,1.2,1.2C255.4,173,253.3,173,250.8,172.5L250.8,172.5z"/>
			</g>
			<g transform="matrix(1,0,0,1,0,0)">
				<path class="st23" d="M266.1,216.9c-1.1-1.1-0.6-1.8,1.4-2.5c2.6-0.8,3-0.3,1.2,1.6C267.1,217.7,266.9,217.7,266.1,216.9
					L266.1,216.9z"/>
				<path class="st24" d="M266.1,216.9c-1.1-1.1-0.6-1.8,1.4-2.5c2.6-0.8,3-0.3,1.2,1.6C267.1,217.7,266.9,217.7,266.1,216.9
					L266.1,216.9z"/>
			</g>
			<g transform="matrix(1,0,0,1,0,0)">
				<path class="st27" d="M409.2,181c0-4.5,0.1-6.4,0.2-4.1c0.1,2.3,0.1,6,0,8.2C409.3,187.4,409.2,185.5,409.2,181L409.2,181z"/>
				<path class="st28" d="M409.2,181c0-4.5,0.1-6.4,0.2-4.1c0.1,2.3,0.1,6,0,8.2C409.3,187.4,409.2,185.5,409.2,181L409.2,181z"/>
			</g>
		</g>
	</g>
</g>
</svg>
